<mxfile host="app.diagrams.net" modified="2023-10-31T15:30:16.884Z" agent="Mozilla/5.0 (Windows NT 10.0; Win64; x64) AppleWebKit/537.36 (KHTML, like Gecko) Chrome/118.0.0.0 Safari/537.36" etag="KahfOVLzMBQ3_ghsUwRb" version="22.0.8" type="device">
  <diagram name="Página-1" id="QDFdc5H-o6-C7C--hpfN">
    <mxGraphModel dx="1050" dy="566" grid="1" gridSize="10" guides="1" tooltips="1" connect="1" arrows="1" fold="1" page="1" pageScale="1" pageWidth="1169" pageHeight="827" math="0" shadow="0">
      <root>
        <mxCell id="0" />
        <mxCell id="1" parent="0" />
        <mxCell id="LMSI0sBjddlQzyL4ytFz-14" value="Nome" style="ellipse;whiteSpace=wrap;html=1;align=center;" parent="1" vertex="1">
          <mxGeometry x="682" y="214" width="100" height="40" as="geometry" />
        </mxCell>
        <mxCell id="LMSI0sBjddlQzyL4ytFz-15" value="&lt;b&gt;Id&lt;/b&gt;" style="ellipse;whiteSpace=wrap;html=1;align=center;fontStyle=4;" parent="1" vertex="1">
          <mxGeometry x="422" y="144" width="100" height="40" as="geometry" />
        </mxCell>
        <mxCell id="LMSI0sBjddlQzyL4ytFz-16" value="Email" style="ellipse;whiteSpace=wrap;html=1;align=center;" parent="1" vertex="1">
          <mxGeometry x="462" y="214" width="100" height="40" as="geometry" />
        </mxCell>
        <mxCell id="LMSI0sBjddlQzyL4ytFz-17" value="Telefone" style="ellipse;whiteSpace=wrap;html=1;align=center;" parent="1" vertex="1">
          <mxGeometry x="712" y="144" width="100" height="40" as="geometry" />
        </mxCell>
        <mxCell id="LMSI0sBjddlQzyL4ytFz-19" value="User" style="rounded=0;whiteSpace=wrap;html=1;" parent="1" vertex="1">
          <mxGeometry x="562" y="124" width="120" height="60" as="geometry" />
        </mxCell>
        <mxCell id="LMSI0sBjddlQzyL4ytFz-20" value="" style="endArrow=none;html=1;rounded=0;exitX=0.5;exitY=0;exitDx=0;exitDy=0;entryX=0.25;entryY=1;entryDx=0;entryDy=0;" parent="1" source="LMSI0sBjddlQzyL4ytFz-16" target="LMSI0sBjddlQzyL4ytFz-19" edge="1">
          <mxGeometry width="50" height="50" relative="1" as="geometry">
            <mxPoint x="612" y="244" as="sourcePoint" />
            <mxPoint x="662" y="194" as="targetPoint" />
          </mxGeometry>
        </mxCell>
        <mxCell id="LMSI0sBjddlQzyL4ytFz-21" value="" style="endArrow=none;html=1;rounded=0;exitX=0.5;exitY=0;exitDx=0;exitDy=0;entryX=0.75;entryY=1;entryDx=0;entryDy=0;" parent="1" source="LMSI0sBjddlQzyL4ytFz-14" target="LMSI0sBjddlQzyL4ytFz-19" edge="1">
          <mxGeometry width="50" height="50" relative="1" as="geometry">
            <mxPoint x="612" y="244" as="sourcePoint" />
            <mxPoint x="662" y="194" as="targetPoint" />
          </mxGeometry>
        </mxCell>
        <mxCell id="LMSI0sBjddlQzyL4ytFz-22" value="" style="endArrow=none;html=1;rounded=0;entryX=0;entryY=0.5;entryDx=0;entryDy=0;exitX=1;exitY=0.5;exitDx=0;exitDy=0;" parent="1" source="LMSI0sBjddlQzyL4ytFz-19" target="LMSI0sBjddlQzyL4ytFz-17" edge="1">
          <mxGeometry width="50" height="50" relative="1" as="geometry">
            <mxPoint x="612" y="244" as="sourcePoint" />
            <mxPoint x="662" y="194" as="targetPoint" />
          </mxGeometry>
        </mxCell>
        <mxCell id="LMSI0sBjddlQzyL4ytFz-23" value="" style="endArrow=none;html=1;rounded=0;exitX=1;exitY=0.5;exitDx=0;exitDy=0;entryX=0;entryY=0.5;entryDx=0;entryDy=0;" parent="1" source="LMSI0sBjddlQzyL4ytFz-15" target="LMSI0sBjddlQzyL4ytFz-19" edge="1">
          <mxGeometry width="50" height="50" relative="1" as="geometry">
            <mxPoint x="612" y="244" as="sourcePoint" />
            <mxPoint x="662" y="194" as="targetPoint" />
          </mxGeometry>
        </mxCell>
        <mxCell id="LMSI0sBjddlQzyL4ytFz-24" value="" style="endArrow=none;html=1;rounded=0;entryX=0.5;entryY=1;entryDx=0;entryDy=0;" parent="1" source="TWBt29EpJbZGd_mm3P69-1" target="LMSI0sBjddlQzyL4ytFz-19" edge="1">
          <mxGeometry width="50" height="50" relative="1" as="geometry">
            <mxPoint x="622" y="314" as="sourcePoint" />
            <mxPoint x="662" y="294" as="targetPoint" />
          </mxGeometry>
        </mxCell>
        <mxCell id="LMSI0sBjddlQzyL4ytFz-29" value="Administrador" style="rounded=0;whiteSpace=wrap;html=1;" parent="1" vertex="1">
          <mxGeometry x="142" y="375.5" width="120" height="60" as="geometry" />
        </mxCell>
        <mxCell id="TWBt29EpJbZGd_mm3P69-7" style="rounded=0;orthogonalLoop=1;jettySize=auto;html=1;exitX=1;exitY=0.75;exitDx=0;exitDy=0;entryX=0;entryY=0.5;entryDx=0;entryDy=0;endArrow=none;endFill=0;" parent="1" source="LMSI0sBjddlQzyL4ytFz-30" target="rsmjsAigwn7J-hRb7SEo-9" edge="1">
          <mxGeometry relative="1" as="geometry" />
        </mxCell>
        <mxCell id="LMSI0sBjddlQzyL4ytFz-30" value="Funcionário" style="rounded=0;whiteSpace=wrap;html=1;" parent="1" vertex="1">
          <mxGeometry x="800" y="300" width="120" height="60" as="geometry" />
        </mxCell>
        <mxCell id="LMSI0sBjddlQzyL4ytFz-31" value="" style="endArrow=none;html=1;rounded=0;exitX=0.5;exitY=0;exitDx=0;exitDy=0;" parent="1" source="LMSI0sBjddlQzyL4ytFz-32" edge="1">
          <mxGeometry width="50" height="50" relative="1" as="geometry">
            <mxPoint x="622" y="344" as="sourcePoint" />
            <mxPoint x="622" y="314" as="targetPoint" />
          </mxGeometry>
        </mxCell>
        <mxCell id="LMSI0sBjddlQzyL4ytFz-32" value="Utente" style="rounded=0;whiteSpace=wrap;html=1;" parent="1" vertex="1">
          <mxGeometry x="370" y="435.5" width="120" height="60" as="geometry" />
        </mxCell>
        <mxCell id="LMSI0sBjddlQzyL4ytFz-39" value="" style="endArrow=none;html=1;rounded=0;exitX=0.5;exitY=1;exitDx=0;exitDy=0;entryX=0.5;entryY=0;entryDx=0;entryDy=0;" parent="1" source="LMSI0sBjddlQzyL4ytFz-29" target="rsmjsAigwn7J-hRb7SEo-1" edge="1">
          <mxGeometry width="50" height="50" relative="1" as="geometry">
            <mxPoint x="272" y="548.5" as="sourcePoint" />
            <mxPoint x="182" y="592.5" as="targetPoint" />
          </mxGeometry>
        </mxCell>
        <mxCell id="rsmjsAigwn7J-hRb7SEo-1" value="Username" style="ellipse;whiteSpace=wrap;html=1;align=center;" parent="1" vertex="1">
          <mxGeometry x="70" y="505" width="100" height="40" as="geometry" />
        </mxCell>
        <mxCell id="rsmjsAigwn7J-hRb7SEo-2" value="" style="endArrow=none;html=1;rounded=0;exitX=0.5;exitY=1;exitDx=0;exitDy=0;entryX=0;entryY=0.5;entryDx=0;entryDy=0;" parent="1" source="LMSI0sBjddlQzyL4ytFz-29" target="rsmjsAigwn7J-hRb7SEo-4" edge="1">
          <mxGeometry width="50" height="50" relative="1" as="geometry">
            <mxPoint x="272" y="548.5" as="sourcePoint" />
            <mxPoint x="242" y="550.5" as="targetPoint" />
          </mxGeometry>
        </mxCell>
        <mxCell id="rsmjsAigwn7J-hRb7SEo-4" value="Password" style="ellipse;whiteSpace=wrap;html=1;align=center;" parent="1" vertex="1">
          <mxGeometry x="200" y="505" width="100" height="40" as="geometry" />
        </mxCell>
        <mxCell id="rsmjsAigwn7J-hRb7SEo-5" value="Username" style="ellipse;whiteSpace=wrap;html=1;align=center;" parent="1" vertex="1">
          <mxGeometry x="270" y="650" width="100" height="40" as="geometry" />
        </mxCell>
        <mxCell id="rsmjsAigwn7J-hRb7SEo-6" value="Password" style="ellipse;whiteSpace=wrap;html=1;align=center;" parent="1" vertex="1">
          <mxGeometry x="380" y="660" width="100" height="40" as="geometry" />
        </mxCell>
        <mxCell id="rsmjsAigwn7J-hRb7SEo-7" value="" style="endArrow=none;html=1;rounded=0;exitX=0.5;exitY=0;exitDx=0;exitDy=0;entryX=0.5;entryY=1;entryDx=0;entryDy=0;" parent="1" source="rsmjsAigwn7J-hRb7SEo-5" target="LMSI0sBjddlQzyL4ytFz-32" edge="1">
          <mxGeometry width="50" height="50" relative="1" as="geometry">
            <mxPoint x="510" y="380" as="sourcePoint" />
            <mxPoint x="560" y="330" as="targetPoint" />
          </mxGeometry>
        </mxCell>
        <mxCell id="rsmjsAigwn7J-hRb7SEo-8" value="" style="endArrow=none;html=1;rounded=0;exitX=0.5;exitY=0;exitDx=0;exitDy=0;entryX=0.5;entryY=1;entryDx=0;entryDy=0;" parent="1" source="rsmjsAigwn7J-hRb7SEo-6" target="LMSI0sBjddlQzyL4ytFz-32" edge="1">
          <mxGeometry width="50" height="50" relative="1" as="geometry">
            <mxPoint x="510" y="380" as="sourcePoint" />
            <mxPoint x="560" y="330" as="targetPoint" />
          </mxGeometry>
        </mxCell>
        <mxCell id="rsmjsAigwn7J-hRb7SEo-9" value="Username" style="ellipse;whiteSpace=wrap;html=1;align=center;" parent="1" vertex="1">
          <mxGeometry x="990" y="344" width="100" height="40" as="geometry" />
        </mxCell>
        <mxCell id="rsmjsAigwn7J-hRb7SEo-10" value="Password" style="ellipse;whiteSpace=wrap;html=1;align=center;" parent="1" vertex="1">
          <mxGeometry x="980" y="280" width="100" height="40" as="geometry" />
        </mxCell>
        <mxCell id="rsmjsAigwn7J-hRb7SEo-12" value="" style="endArrow=none;html=1;rounded=0;entryX=1;entryY=0;entryDx=0;entryDy=0;exitX=0;exitY=0;exitDx=0;exitDy=0;" parent="1" source="rsmjsAigwn7J-hRb7SEo-10" target="LMSI0sBjddlQzyL4ytFz-30" edge="1">
          <mxGeometry width="50" height="50" relative="1" as="geometry">
            <mxPoint x="510" y="380" as="sourcePoint" />
            <mxPoint x="560" y="330" as="targetPoint" />
          </mxGeometry>
        </mxCell>
        <mxCell id="rsmjsAigwn7J-hRb7SEo-14" value="Servico" style="rounded=0;whiteSpace=wrap;html=1;" parent="1" vertex="1">
          <mxGeometry x="1180" y="940" width="120" height="60" as="geometry" />
        </mxCell>
        <mxCell id="rsmjsAigwn7J-hRb7SEo-15" value="" style="endArrow=none;html=1;rounded=0;entryX=0.5;entryY=1;entryDx=0;entryDy=0;exitX=0.5;exitY=0;exitDx=0;exitDy=0;" parent="1" source="rsmjsAigwn7J-hRb7SEo-16" target="rsmjsAigwn7J-hRb7SEo-14" edge="1">
          <mxGeometry width="50" height="50" relative="1" as="geometry">
            <mxPoint x="1180" y="1035" as="sourcePoint" />
            <mxPoint x="1150" y="855" as="targetPoint" />
          </mxGeometry>
        </mxCell>
        <mxCell id="rsmjsAigwn7J-hRb7SEo-16" value="&lt;b&gt;Id&lt;/b&gt;" style="ellipse;whiteSpace=wrap;html=1;align=center;fontStyle=4;" parent="1" vertex="1">
          <mxGeometry x="1080" y="1040" width="100" height="40" as="geometry" />
        </mxCell>
        <mxCell id="rsmjsAigwn7J-hRb7SEo-17" value="" style="endArrow=none;html=1;rounded=0;entryX=0.5;entryY=1;entryDx=0;entryDy=0;exitX=0.5;exitY=0;exitDx=0;exitDy=0;" parent="1" source="rsmjsAigwn7J-hRb7SEo-18" target="rsmjsAigwn7J-hRb7SEo-14" edge="1">
          <mxGeometry width="50" height="50" relative="1" as="geometry">
            <mxPoint x="1250" y="1055" as="sourcePoint" />
            <mxPoint x="1150" y="1005" as="targetPoint" />
          </mxGeometry>
        </mxCell>
        <mxCell id="rsmjsAigwn7J-hRb7SEo-18" value="NomeServico" style="ellipse;whiteSpace=wrap;html=1;align=center;" parent="1" vertex="1">
          <mxGeometry x="1190" y="1055" width="100" height="40" as="geometry" />
        </mxCell>
        <mxCell id="rsmjsAigwn7J-hRb7SEo-19" value="Duracao" style="ellipse;whiteSpace=wrap;html=1;align=center;" parent="1" vertex="1">
          <mxGeometry x="1305" y="1015" width="100" height="40" as="geometry" />
        </mxCell>
        <mxCell id="rsmjsAigwn7J-hRb7SEo-20" value="" style="endArrow=none;html=1;rounded=0;entryX=0.5;entryY=1;entryDx=0;entryDy=0;exitX=0;exitY=0.5;exitDx=0;exitDy=0;" parent="1" source="rsmjsAigwn7J-hRb7SEo-19" target="rsmjsAigwn7J-hRb7SEo-14" edge="1">
          <mxGeometry width="50" height="50" relative="1" as="geometry">
            <mxPoint x="1340" y="1005" as="sourcePoint" />
            <mxPoint x="1230" y="995" as="targetPoint" />
          </mxGeometry>
        </mxCell>
        <mxCell id="rsmjsAigwn7J-hRb7SEo-22" value="Fornecedor" style="rounded=0;whiteSpace=wrap;html=1;" parent="1" vertex="1">
          <mxGeometry x="2417" y="458" width="120" height="60" as="geometry" />
        </mxCell>
        <mxCell id="rsmjsAigwn7J-hRb7SEo-23" value="" style="endArrow=none;html=1;rounded=0;entryX=0.5;entryY=1;entryDx=0;entryDy=0;exitX=0.5;exitY=0;exitDx=0;exitDy=0;" parent="1" source="rsmjsAigwn7J-hRb7SEo-24" target="rsmjsAigwn7J-hRb7SEo-22" edge="1">
          <mxGeometry width="50" height="50" relative="1" as="geometry">
            <mxPoint x="2383" y="558" as="sourcePoint" />
            <mxPoint x="2397" y="378" as="targetPoint" />
          </mxGeometry>
        </mxCell>
        <mxCell id="rsmjsAigwn7J-hRb7SEo-24" value="&lt;b&gt;Id&lt;/b&gt;" style="ellipse;whiteSpace=wrap;html=1;align=center;fontStyle=4;" parent="1" vertex="1">
          <mxGeometry x="2290" y="590" width="100" height="40" as="geometry" />
        </mxCell>
        <mxCell id="rsmjsAigwn7J-hRb7SEo-25" value="" style="endArrow=none;html=1;rounded=0;entryX=0.5;entryY=1;entryDx=0;entryDy=0;exitX=0.5;exitY=0;exitDx=0;exitDy=0;" parent="1" source="rsmjsAigwn7J-hRb7SEo-26" target="rsmjsAigwn7J-hRb7SEo-22" edge="1">
          <mxGeometry width="50" height="50" relative="1" as="geometry">
            <mxPoint x="2497" y="578" as="sourcePoint" />
            <mxPoint x="2397" y="528" as="targetPoint" />
          </mxGeometry>
        </mxCell>
        <mxCell id="rsmjsAigwn7J-hRb7SEo-26" value="NomeFornecedor" style="ellipse;whiteSpace=wrap;html=1;align=center;" parent="1" vertex="1">
          <mxGeometry x="2419" y="558" width="108" height="50" as="geometry" />
        </mxCell>
        <mxCell id="rsmjsAigwn7J-hRb7SEo-27" value="Telefone" style="ellipse;whiteSpace=wrap;html=1;align=center;" parent="1" vertex="1">
          <mxGeometry x="2570" y="550" width="100" height="40" as="geometry" />
        </mxCell>
        <mxCell id="rsmjsAigwn7J-hRb7SEo-28" value="" style="endArrow=none;html=1;rounded=0;entryX=0.5;entryY=1;entryDx=0;entryDy=0;exitX=0.25;exitY=-0.075;exitDx=0;exitDy=0;exitPerimeter=0;" parent="1" source="rsmjsAigwn7J-hRb7SEo-27" target="rsmjsAigwn7J-hRb7SEo-22" edge="1">
          <mxGeometry width="50" height="50" relative="1" as="geometry">
            <mxPoint x="2560" y="530" as="sourcePoint" />
            <mxPoint x="2477" y="518" as="targetPoint" />
          </mxGeometry>
        </mxCell>
        <mxCell id="rsmjsAigwn7J-hRb7SEo-29" value="Receita" style="rounded=0;whiteSpace=wrap;html=1;" parent="1" vertex="1">
          <mxGeometry x="2848" y="413" width="120" height="60" as="geometry" />
        </mxCell>
        <mxCell id="rsmjsAigwn7J-hRb7SEo-30" value="" style="endArrow=none;html=1;rounded=0;entryX=0.5;entryY=1;entryDx=0;entryDy=0;exitX=0.5;exitY=0;exitDx=0;exitDy=0;" parent="1" source="rsmjsAigwn7J-hRb7SEo-31" target="rsmjsAigwn7J-hRb7SEo-29" edge="1">
          <mxGeometry width="50" height="50" relative="1" as="geometry">
            <mxPoint x="2858" y="513" as="sourcePoint" />
            <mxPoint x="2828" y="333" as="targetPoint" />
          </mxGeometry>
        </mxCell>
        <mxCell id="rsmjsAigwn7J-hRb7SEo-31" value="&lt;b&gt;Id&lt;/b&gt;" style="ellipse;whiteSpace=wrap;html=1;align=center;fontStyle=4;" parent="1" vertex="1">
          <mxGeometry x="2710" y="483" width="100" height="40" as="geometry" />
        </mxCell>
        <mxCell id="rsmjsAigwn7J-hRb7SEo-32" value="" style="endArrow=none;html=1;rounded=0;entryX=0.5;entryY=1;entryDx=0;entryDy=0;exitX=0.5;exitY=0;exitDx=0;exitDy=0;" parent="1" source="rsmjsAigwn7J-hRb7SEo-33" target="rsmjsAigwn7J-hRb7SEo-29" edge="1">
          <mxGeometry width="50" height="50" relative="1" as="geometry">
            <mxPoint x="2928" y="533" as="sourcePoint" />
            <mxPoint x="2828" y="483" as="targetPoint" />
          </mxGeometry>
        </mxCell>
        <mxCell id="rsmjsAigwn7J-hRb7SEo-33" value="NomeUtente" style="ellipse;whiteSpace=wrap;html=1;align=center;" parent="1" vertex="1">
          <mxGeometry x="2748" y="523" width="108" height="50" as="geometry" />
        </mxCell>
        <mxCell id="rsmjsAigwn7J-hRb7SEo-34" value="código" style="ellipse;whiteSpace=wrap;html=1;align=center;" parent="1" vertex="1">
          <mxGeometry x="2790" y="583" width="100" height="40" as="geometry" />
        </mxCell>
        <mxCell id="rsmjsAigwn7J-hRb7SEo-35" value="" style="endArrow=none;html=1;rounded=0;exitX=0.5;exitY=0;exitDx=0;exitDy=0;entryX=0.5;entryY=1;entryDx=0;entryDy=0;" parent="1" source="rsmjsAigwn7J-hRb7SEo-34" target="rsmjsAigwn7J-hRb7SEo-29" edge="1">
          <mxGeometry width="50" height="50" relative="1" as="geometry">
            <mxPoint x="2778" y="533" as="sourcePoint" />
            <mxPoint x="2908" y="473" as="targetPoint" />
          </mxGeometry>
        </mxCell>
        <mxCell id="rsmjsAigwn7J-hRb7SEo-36" value="localPrescricao" style="ellipse;whiteSpace=wrap;html=1;align=center;" parent="1" vertex="1">
          <mxGeometry x="2856" y="623" width="100" height="40" as="geometry" />
        </mxCell>
        <mxCell id="rsmjsAigwn7J-hRb7SEo-37" value="" style="endArrow=none;html=1;rounded=0;exitX=0.5;exitY=0;exitDx=0;exitDy=0;entryX=0.5;entryY=1;entryDx=0;entryDy=0;" parent="1" source="rsmjsAigwn7J-hRb7SEo-36" target="rsmjsAigwn7J-hRb7SEo-29" edge="1">
          <mxGeometry width="50" height="50" relative="1" as="geometry">
            <mxPoint x="2668" y="533" as="sourcePoint" />
            <mxPoint x="2718" y="483" as="targetPoint" />
          </mxGeometry>
        </mxCell>
        <mxCell id="rsmjsAigwn7J-hRb7SEo-38" value="medicoPrescritor" style="ellipse;whiteSpace=wrap;html=1;align=center;" parent="1" vertex="1">
          <mxGeometry x="2938" y="593" width="100" height="40" as="geometry" />
        </mxCell>
        <mxCell id="rsmjsAigwn7J-hRb7SEo-39" value="" style="endArrow=none;html=1;rounded=0;exitX=0.5;exitY=0;exitDx=0;exitDy=0;entryX=0.5;entryY=1;entryDx=0;entryDy=0;" parent="1" source="rsmjsAigwn7J-hRb7SEo-38" target="rsmjsAigwn7J-hRb7SEo-29" edge="1">
          <mxGeometry width="50" height="50" relative="1" as="geometry">
            <mxPoint x="2668" y="533" as="sourcePoint" />
            <mxPoint x="2718" y="483" as="targetPoint" />
          </mxGeometry>
        </mxCell>
        <mxCell id="rsmjsAigwn7J-hRb7SEo-40" value="telefone" style="ellipse;whiteSpace=wrap;html=1;align=center;" parent="1" vertex="1">
          <mxGeometry x="2988" y="553" width="100" height="40" as="geometry" />
        </mxCell>
        <mxCell id="rsmjsAigwn7J-hRb7SEo-41" value="" style="endArrow=none;html=1;rounded=0;exitX=0.5;exitY=0;exitDx=0;exitDy=0;entryX=0.5;entryY=1;entryDx=0;entryDy=0;" parent="1" source="rsmjsAigwn7J-hRb7SEo-40" target="rsmjsAigwn7J-hRb7SEo-29" edge="1">
          <mxGeometry width="50" height="50" relative="1" as="geometry">
            <mxPoint x="2668" y="533" as="sourcePoint" />
            <mxPoint x="2718" y="483" as="targetPoint" />
          </mxGeometry>
        </mxCell>
        <mxCell id="rsmjsAigwn7J-hRb7SEo-42" value="posologia" style="ellipse;whiteSpace=wrap;html=1;align=center;" parent="1" vertex="1">
          <mxGeometry x="3008" y="493" width="100" height="40" as="geometry" />
        </mxCell>
        <mxCell id="rsmjsAigwn7J-hRb7SEo-43" value="" style="endArrow=none;html=1;rounded=0;exitX=0.5;exitY=0;exitDx=0;exitDy=0;entryX=0.5;entryY=1;entryDx=0;entryDy=0;" parent="1" source="rsmjsAigwn7J-hRb7SEo-42" target="rsmjsAigwn7J-hRb7SEo-29" edge="1">
          <mxGeometry width="50" height="50" relative="1" as="geometry">
            <mxPoint x="2968" y="493" as="sourcePoint" />
            <mxPoint x="3018" y="443" as="targetPoint" />
          </mxGeometry>
        </mxCell>
        <mxCell id="rsmjsAigwn7J-hRb7SEo-44" value="Estabelecimento" style="rounded=0;whiteSpace=wrap;html=1;" parent="1" vertex="1">
          <mxGeometry x="1460" y="580" width="120" height="60" as="geometry" />
        </mxCell>
        <mxCell id="rsmjsAigwn7J-hRb7SEo-45" value="" style="endArrow=none;html=1;rounded=0;entryX=0.5;entryY=1;entryDx=0;entryDy=0;exitX=1;exitY=0.5;exitDx=0;exitDy=0;" parent="1" source="rsmjsAigwn7J-hRb7SEo-46" target="rsmjsAigwn7J-hRb7SEo-44" edge="1">
          <mxGeometry width="50" height="50" relative="1" as="geometry">
            <mxPoint x="1490" y="682.5" as="sourcePoint" />
            <mxPoint x="1530" y="532.5" as="targetPoint" />
          </mxGeometry>
        </mxCell>
        <mxCell id="rsmjsAigwn7J-hRb7SEo-46" value="&lt;b&gt;Id&lt;/b&gt;" style="ellipse;whiteSpace=wrap;html=1;align=center;fontStyle=4;" parent="1" vertex="1">
          <mxGeometry x="1430" y="733" width="100" height="40" as="geometry" />
        </mxCell>
        <mxCell id="rsmjsAigwn7J-hRb7SEo-47" value="" style="endArrow=none;html=1;rounded=0;entryX=0.5;entryY=1;entryDx=0;entryDy=0;exitX=0.5;exitY=0;exitDx=0;exitDy=0;" parent="1" source="rsmjsAigwn7J-hRb7SEo-48" target="rsmjsAigwn7J-hRb7SEo-44" edge="1">
          <mxGeometry width="50" height="50" relative="1" as="geometry">
            <mxPoint x="1630" y="732.5" as="sourcePoint" />
            <mxPoint x="1530" y="682.5" as="targetPoint" />
          </mxGeometry>
        </mxCell>
        <mxCell id="rsmjsAigwn7J-hRb7SEo-48" value="NomeEstab" style="ellipse;whiteSpace=wrap;html=1;align=center;" parent="1" vertex="1">
          <mxGeometry x="1530" y="787" width="100" height="40" as="geometry" />
        </mxCell>
        <mxCell id="rsmjsAigwn7J-hRb7SEo-49" value="Morada" style="ellipse;whiteSpace=wrap;html=1;align=center;" parent="1" vertex="1">
          <mxGeometry x="1640" y="773" width="100" height="40" as="geometry" />
        </mxCell>
        <mxCell id="rsmjsAigwn7J-hRb7SEo-50" value="" style="endArrow=none;html=1;rounded=0;exitX=0.5;exitY=0;exitDx=0;exitDy=0;entryX=0.5;entryY=1;entryDx=0;entryDy=0;" parent="1" source="rsmjsAigwn7J-hRb7SEo-49" target="rsmjsAigwn7J-hRb7SEo-44" edge="1">
          <mxGeometry width="50" height="50" relative="1" as="geometry">
            <mxPoint x="1480" y="732.5" as="sourcePoint" />
            <mxPoint x="1610" y="672.5" as="targetPoint" />
          </mxGeometry>
        </mxCell>
        <mxCell id="rsmjsAigwn7J-hRb7SEo-51" value="Telefone" style="ellipse;whiteSpace=wrap;html=1;align=center;" parent="1" vertex="1">
          <mxGeometry x="1654" y="710.5" width="100" height="40" as="geometry" />
        </mxCell>
        <mxCell id="rsmjsAigwn7J-hRb7SEo-52" value="" style="endArrow=none;html=1;rounded=0;exitX=0.5;exitY=0;exitDx=0;exitDy=0;" parent="1" source="rsmjsAigwn7J-hRb7SEo-51" edge="1">
          <mxGeometry width="50" height="50" relative="1" as="geometry">
            <mxPoint x="1550" y="682.5" as="sourcePoint" />
            <mxPoint x="1520" y="640" as="targetPoint" />
          </mxGeometry>
        </mxCell>
        <mxCell id="rsmjsAigwn7J-hRb7SEo-54" value="Venda" style="rounded=0;whiteSpace=wrap;html=1;" parent="1" vertex="1">
          <mxGeometry x="1520" y="90" width="120" height="60" as="geometry" />
        </mxCell>
        <mxCell id="rsmjsAigwn7J-hRb7SEo-55" value="" style="endArrow=none;html=1;rounded=0;entryX=0.5;entryY=0;entryDx=0;entryDy=0;exitX=0.5;exitY=0;exitDx=0;exitDy=0;" parent="1" source="rsmjsAigwn7J-hRb7SEo-56" target="rsmjsAigwn7J-hRb7SEo-54" edge="1">
          <mxGeometry width="50" height="50" relative="1" as="geometry">
            <mxPoint x="1530" y="190" as="sourcePoint" />
            <mxPoint x="1500" y="10" as="targetPoint" />
          </mxGeometry>
        </mxCell>
        <mxCell id="rsmjsAigwn7J-hRb7SEo-56" value="&lt;b&gt;Id&lt;/b&gt;" style="ellipse;whiteSpace=wrap;html=1;align=center;fontStyle=4;" parent="1" vertex="1">
          <mxGeometry x="1390" y="40" width="100" height="40" as="geometry" />
        </mxCell>
        <mxCell id="rsmjsAigwn7J-hRb7SEo-57" value="" style="endArrow=none;html=1;rounded=0;entryX=0;entryY=0.5;entryDx=0;entryDy=0;exitX=1;exitY=0.5;exitDx=0;exitDy=0;" parent="1" source="rsmjsAigwn7J-hRb7SEo-58" target="rsmjsAigwn7J-hRb7SEo-54" edge="1">
          <mxGeometry width="50" height="50" relative="1" as="geometry">
            <mxPoint x="1440" y="150" as="sourcePoint" />
            <mxPoint x="1500" y="160" as="targetPoint" />
          </mxGeometry>
        </mxCell>
        <mxCell id="rsmjsAigwn7J-hRb7SEo-58" value="DtaVenda" style="ellipse;whiteSpace=wrap;html=1;align=center;" parent="1" vertex="1">
          <mxGeometry x="1350" y="180" width="100" height="40" as="geometry" />
        </mxCell>
        <mxCell id="rsmjsAigwn7J-hRb7SEo-63" value="LinhaVenda" style="rounded=0;whiteSpace=wrap;html=1;" parent="1" vertex="1">
          <mxGeometry x="1920" y="20" width="120" height="60" as="geometry" />
        </mxCell>
        <mxCell id="rsmjsAigwn7J-hRb7SEo-64" value="" style="endArrow=none;html=1;rounded=0;entryX=0.5;entryY=1;entryDx=0;entryDy=0;exitX=0.5;exitY=0;exitDx=0;exitDy=0;" parent="1" source="rsmjsAigwn7J-hRb7SEo-65" target="rsmjsAigwn7J-hRb7SEo-63" edge="1">
          <mxGeometry width="50" height="50" relative="1" as="geometry">
            <mxPoint x="1818" y="130" as="sourcePoint" />
            <mxPoint x="1788" y="-50" as="targetPoint" />
          </mxGeometry>
        </mxCell>
        <mxCell id="rsmjsAigwn7J-hRb7SEo-65" value="&lt;b&gt;Id&lt;/b&gt;" style="ellipse;whiteSpace=wrap;html=1;align=center;fontStyle=4;" parent="1" vertex="1">
          <mxGeometry x="1820" y="72" width="100" height="40" as="geometry" />
        </mxCell>
        <mxCell id="rsmjsAigwn7J-hRb7SEo-66" value="" style="endArrow=none;html=1;rounded=0;entryX=0.5;entryY=1;entryDx=0;entryDy=0;exitX=0.5;exitY=0;exitDx=0;exitDy=0;" parent="1" source="rsmjsAigwn7J-hRb7SEo-67" target="rsmjsAigwn7J-hRb7SEo-63" edge="1">
          <mxGeometry width="50" height="50" relative="1" as="geometry">
            <mxPoint x="1888" y="150" as="sourcePoint" />
            <mxPoint x="1788" y="100" as="targetPoint" />
          </mxGeometry>
        </mxCell>
        <mxCell id="rsmjsAigwn7J-hRb7SEo-67" value="DtaVenda" style="ellipse;whiteSpace=wrap;html=1;align=center;" parent="1" vertex="1">
          <mxGeometry x="1820" y="134" width="100" height="40" as="geometry" />
        </mxCell>
        <mxCell id="rsmjsAigwn7J-hRb7SEo-70" value="Quantidade" style="ellipse;whiteSpace=wrap;html=1;align=center;" parent="1" vertex="1">
          <mxGeometry x="2040" y="157.5" width="100" height="40" as="geometry" />
        </mxCell>
        <mxCell id="rsmjsAigwn7J-hRb7SEo-71" value="" style="endArrow=none;html=1;rounded=0;entryX=0.5;entryY=1;entryDx=0;entryDy=0;exitX=0.5;exitY=0;exitDx=0;exitDy=0;" parent="1" source="rsmjsAigwn7J-hRb7SEo-70" target="rsmjsAigwn7J-hRb7SEo-63" edge="1">
          <mxGeometry width="50" height="50" relative="1" as="geometry">
            <mxPoint x="2042" y="104" as="sourcePoint" />
            <mxPoint x="1790" y="120" as="targetPoint" />
          </mxGeometry>
        </mxCell>
        <mxCell id="rsmjsAigwn7J-hRb7SEo-72" value="Despesa" style="rounded=0;whiteSpace=wrap;html=1;" parent="1" vertex="1">
          <mxGeometry x="2020" y="568" width="120" height="60" as="geometry" />
        </mxCell>
        <mxCell id="rsmjsAigwn7J-hRb7SEo-73" value="" style="endArrow=none;html=1;rounded=0;entryX=0.5;entryY=1;entryDx=0;entryDy=0;exitX=0.5;exitY=0;exitDx=0;exitDy=0;" parent="1" source="rsmjsAigwn7J-hRb7SEo-74" target="rsmjsAigwn7J-hRb7SEo-72" edge="1">
          <mxGeometry width="50" height="50" relative="1" as="geometry">
            <mxPoint x="1824" y="1088" as="sourcePoint" />
            <mxPoint x="1794" y="908" as="targetPoint" />
          </mxGeometry>
        </mxCell>
        <mxCell id="rsmjsAigwn7J-hRb7SEo-74" value="&lt;b&gt;Id&lt;/b&gt;" style="ellipse;whiteSpace=wrap;html=1;align=center;fontStyle=4;" parent="1" vertex="1">
          <mxGeometry x="1920" y="747" width="100" height="40" as="geometry" />
        </mxCell>
        <mxCell id="rsmjsAigwn7J-hRb7SEo-75" value="" style="endArrow=none;html=1;rounded=0;entryX=0.5;entryY=1;entryDx=0;entryDy=0;exitX=0.5;exitY=0;exitDx=0;exitDy=0;" parent="1" source="rsmjsAigwn7J-hRb7SEo-76" target="rsmjsAigwn7J-hRb7SEo-72" edge="1">
          <mxGeometry width="50" height="50" relative="1" as="geometry">
            <mxPoint x="1894" y="1108" as="sourcePoint" />
            <mxPoint x="1794" y="1058" as="targetPoint" />
          </mxGeometry>
        </mxCell>
        <mxCell id="rsmjsAigwn7J-hRb7SEo-76" value="DtaDespesa" style="ellipse;whiteSpace=wrap;html=1;align=center;" parent="1" vertex="1">
          <mxGeometry x="2096" y="733" width="100" height="40" as="geometry" />
        </mxCell>
        <mxCell id="rsmjsAigwn7J-hRb7SEo-77" value="Descricao" style="ellipse;whiteSpace=wrap;html=1;align=center;" parent="1" vertex="1">
          <mxGeometry x="2206" y="733" width="100" height="40" as="geometry" />
        </mxCell>
        <mxCell id="rsmjsAigwn7J-hRb7SEo-78" value="" style="endArrow=none;html=1;rounded=0;exitX=0.5;exitY=0;exitDx=0;exitDy=0;entryX=0.5;entryY=1;entryDx=0;entryDy=0;" parent="1" source="rsmjsAigwn7J-hRb7SEo-77" target="rsmjsAigwn7J-hRb7SEo-72" edge="1">
          <mxGeometry width="50" height="50" relative="1" as="geometry">
            <mxPoint x="1744" y="1108" as="sourcePoint" />
            <mxPoint x="1874" y="1048" as="targetPoint" />
          </mxGeometry>
        </mxCell>
        <mxCell id="rsmjsAigwn7J-hRb7SEo-79" value="Valor" style="ellipse;whiteSpace=wrap;html=1;align=center;" parent="1" vertex="1">
          <mxGeometry x="2006" y="773" width="100" height="40" as="geometry" />
        </mxCell>
        <mxCell id="rsmjsAigwn7J-hRb7SEo-80" value="" style="endArrow=none;html=1;rounded=0;entryX=0.5;entryY=1;entryDx=0;entryDy=0;exitX=0.42;exitY=0;exitDx=0;exitDy=0;exitPerimeter=0;" parent="1" source="rsmjsAigwn7J-hRb7SEo-79" target="rsmjsAigwn7J-hRb7SEo-72" edge="1">
          <mxGeometry width="50" height="50" relative="1" as="geometry">
            <mxPoint x="1746" y="1128" as="sourcePoint" />
            <mxPoint x="1796" y="1078" as="targetPoint" />
          </mxGeometry>
        </mxCell>
        <mxCell id="rsmjsAigwn7J-hRb7SEo-81" value="Fatura" style="rounded=0;whiteSpace=wrap;html=1;" parent="1" vertex="1">
          <mxGeometry x="1540" y="307" width="120" height="60" as="geometry" />
        </mxCell>
        <mxCell id="rsmjsAigwn7J-hRb7SEo-82" value="" style="endArrow=none;html=1;rounded=0;entryX=0.5;entryY=1;entryDx=0;entryDy=0;exitX=0.5;exitY=0;exitDx=0;exitDy=0;" parent="1" source="rsmjsAigwn7J-hRb7SEo-83" target="rsmjsAigwn7J-hRb7SEo-81" edge="1">
          <mxGeometry width="50" height="50" relative="1" as="geometry">
            <mxPoint x="1600" y="363" as="sourcePoint" />
            <mxPoint x="1570" y="183" as="targetPoint" />
          </mxGeometry>
        </mxCell>
        <mxCell id="rsmjsAigwn7J-hRb7SEo-83" value="&lt;b&gt;Id&lt;/b&gt;" style="ellipse;whiteSpace=wrap;html=1;align=center;fontStyle=4;" parent="1" vertex="1">
          <mxGeometry x="1405" y="378" width="100" height="40" as="geometry" />
        </mxCell>
        <mxCell id="rsmjsAigwn7J-hRb7SEo-84" value="" style="endArrow=none;html=1;rounded=0;exitX=0.5;exitY=0;exitDx=0;exitDy=0;entryX=0.5;entryY=1;entryDx=0;entryDy=0;" parent="1" source="rsmjsAigwn7J-hRb7SEo-85" target="rsmjsAigwn7J-hRb7SEo-81" edge="1">
          <mxGeometry width="50" height="50" relative="1" as="geometry">
            <mxPoint x="1670" y="383" as="sourcePoint" />
            <mxPoint x="1660" y="370" as="targetPoint" />
          </mxGeometry>
        </mxCell>
        <mxCell id="rsmjsAigwn7J-hRb7SEo-85" value="DtaEmissao" style="ellipse;whiteSpace=wrap;html=1;align=center;" parent="1" vertex="1">
          <mxGeometry x="1470" y="420" width="100" height="40" as="geometry" />
        </mxCell>
        <mxCell id="rsmjsAigwn7J-hRb7SEo-86" value="Loja" style="ellipse;whiteSpace=wrap;html=1;align=center;" parent="1" vertex="1">
          <mxGeometry x="1560" y="445.5" width="100" height="40" as="geometry" />
        </mxCell>
        <mxCell id="rsmjsAigwn7J-hRb7SEo-87" value="" style="endArrow=none;html=1;rounded=0;exitX=0.5;exitY=0;exitDx=0;exitDy=0;entryX=0.583;entryY=0.975;entryDx=0;entryDy=0;entryPerimeter=0;" parent="1" source="rsmjsAigwn7J-hRb7SEo-86" target="rsmjsAigwn7J-hRb7SEo-81" edge="1">
          <mxGeometry width="50" height="50" relative="1" as="geometry">
            <mxPoint x="1520" y="383" as="sourcePoint" />
            <mxPoint x="1650" y="323" as="targetPoint" />
          </mxGeometry>
        </mxCell>
        <mxCell id="rsmjsAigwn7J-hRb7SEo-88" value="TotalFatura" style="ellipse;whiteSpace=wrap;html=1;align=center;" parent="1" vertex="1">
          <mxGeometry x="1746" y="344" width="100" height="40" as="geometry" />
        </mxCell>
        <mxCell id="rsmjsAigwn7J-hRb7SEo-89" value="" style="endArrow=none;html=1;rounded=0;entryX=1;entryY=0.5;entryDx=0;entryDy=0;exitX=0.42;exitY=0;exitDx=0;exitDy=0;exitPerimeter=0;" parent="1" source="rsmjsAigwn7J-hRb7SEo-88" target="rsmjsAigwn7J-hRb7SEo-81" edge="1">
          <mxGeometry width="50" height="50" relative="1" as="geometry">
            <mxPoint x="1522" y="403" as="sourcePoint" />
            <mxPoint x="1572" y="353" as="targetPoint" />
          </mxGeometry>
        </mxCell>
        <mxCell id="rsmjsAigwn7J-hRb7SEo-90" value="Emissor" style="ellipse;whiteSpace=wrap;html=1;align=center;" parent="1" vertex="1">
          <mxGeometry x="1660" y="440" width="100" height="40" as="geometry" />
        </mxCell>
        <mxCell id="rsmjsAigwn7J-hRb7SEo-91" value="" style="endArrow=none;html=1;rounded=0;exitX=0.5;exitY=0;exitDx=0;exitDy=0;entryX=0.75;entryY=1;entryDx=0;entryDy=0;" parent="1" source="rsmjsAigwn7J-hRb7SEo-90" target="rsmjsAigwn7J-hRb7SEo-81" edge="1">
          <mxGeometry width="50" height="50" relative="1" as="geometry">
            <mxPoint x="1418" y="393" as="sourcePoint" />
            <mxPoint x="1670" y="360" as="targetPoint" />
          </mxGeometry>
        </mxCell>
        <mxCell id="rsmjsAigwn7J-hRb7SEo-92" value="Utente" style="ellipse;whiteSpace=wrap;html=1;align=center;" parent="1" vertex="1">
          <mxGeometry x="1720" y="395.5" width="100" height="40" as="geometry" />
        </mxCell>
        <mxCell id="rsmjsAigwn7J-hRb7SEo-93" value="" style="endArrow=none;html=1;rounded=0;entryX=0.5;entryY=0;entryDx=0;entryDy=0;exitX=1;exitY=1;exitDx=0;exitDy=0;" parent="1" source="rsmjsAigwn7J-hRb7SEo-81" target="rsmjsAigwn7J-hRb7SEo-92" edge="1">
          <mxGeometry width="50" height="50" relative="1" as="geometry">
            <mxPoint x="1670" y="360" as="sourcePoint" />
            <mxPoint x="1468" y="343" as="targetPoint" />
          </mxGeometry>
        </mxCell>
        <mxCell id="rsmjsAigwn7J-hRb7SEo-94" value="Departamento" style="rounded=0;whiteSpace=wrap;html=1;" parent="1" vertex="1">
          <mxGeometry x="950" y="630" width="120" height="60" as="geometry" />
        </mxCell>
        <mxCell id="rsmjsAigwn7J-hRb7SEo-95" value="" style="endArrow=none;html=1;rounded=0;entryX=0.5;entryY=1;entryDx=0;entryDy=0;exitX=0.5;exitY=0;exitDx=0;exitDy=0;" parent="1" source="rsmjsAigwn7J-hRb7SEo-96" target="rsmjsAigwn7J-hRb7SEo-94" edge="1">
          <mxGeometry width="50" height="50" relative="1" as="geometry">
            <mxPoint x="822" y="635" as="sourcePoint" />
            <mxPoint x="792" y="455" as="targetPoint" />
          </mxGeometry>
        </mxCell>
        <mxCell id="rsmjsAigwn7J-hRb7SEo-96" value="&lt;b&gt;Id&lt;/b&gt;" style="ellipse;whiteSpace=wrap;html=1;align=center;fontStyle=4;" parent="1" vertex="1">
          <mxGeometry x="910" y="750" width="100" height="40" as="geometry" />
        </mxCell>
        <mxCell id="rsmjsAigwn7J-hRb7SEo-97" value="" style="endArrow=none;html=1;rounded=0;entryX=0.5;entryY=1;entryDx=0;entryDy=0;exitX=0.5;exitY=0;exitDx=0;exitDy=0;" parent="1" source="rsmjsAigwn7J-hRb7SEo-98" target="rsmjsAigwn7J-hRb7SEo-94" edge="1">
          <mxGeometry width="50" height="50" relative="1" as="geometry">
            <mxPoint x="892" y="655" as="sourcePoint" />
            <mxPoint x="792" y="605" as="targetPoint" />
          </mxGeometry>
        </mxCell>
        <mxCell id="rsmjsAigwn7J-hRb7SEo-98" value="NomeDep" style="ellipse;whiteSpace=wrap;html=1;align=center;" parent="1" vertex="1">
          <mxGeometry x="1032" y="750" width="100" height="40" as="geometry" />
        </mxCell>
        <mxCell id="rsmjsAigwn7J-hRb7SEo-103" value="Produto" style="rounded=0;whiteSpace=wrap;html=1;" parent="1" vertex="1">
          <mxGeometry x="2536" y="153" width="120" height="60" as="geometry" />
        </mxCell>
        <mxCell id="rsmjsAigwn7J-hRb7SEo-104" value="" style="endArrow=none;html=1;rounded=0;entryX=0.5;entryY=0;entryDx=0;entryDy=0;exitX=0.5;exitY=1;exitDx=0;exitDy=0;" parent="1" source="rsmjsAigwn7J-hRb7SEo-105" target="rsmjsAigwn7J-hRb7SEo-103" edge="1">
          <mxGeometry width="50" height="50" relative="1" as="geometry">
            <mxPoint x="2546" y="253" as="sourcePoint" />
            <mxPoint x="2516" y="73" as="targetPoint" />
          </mxGeometry>
        </mxCell>
        <mxCell id="rsmjsAigwn7J-hRb7SEo-105" value="&lt;b&gt;Id&lt;/b&gt;" style="ellipse;whiteSpace=wrap;html=1;align=center;fontStyle=4;" parent="1" vertex="1">
          <mxGeometry x="2490" y="62" width="100" height="40" as="geometry" />
        </mxCell>
        <mxCell id="rsmjsAigwn7J-hRb7SEo-106" value="" style="endArrow=none;html=1;rounded=0;entryX=0;entryY=0.5;entryDx=0;entryDy=0;exitX=0.5;exitY=0;exitDx=0;exitDy=0;" parent="1" source="rsmjsAigwn7J-hRb7SEo-107" target="rsmjsAigwn7J-hRb7SEo-103" edge="1">
          <mxGeometry width="50" height="50" relative="1" as="geometry">
            <mxPoint x="2616" y="273" as="sourcePoint" />
            <mxPoint x="2516" y="223" as="targetPoint" />
          </mxGeometry>
        </mxCell>
        <mxCell id="rsmjsAigwn7J-hRb7SEo-107" value="NomeProduto" style="ellipse;whiteSpace=wrap;html=1;align=center;" parent="1" vertex="1">
          <mxGeometry x="2427" y="116.5" width="100" height="40" as="geometry" />
        </mxCell>
        <mxCell id="rsmjsAigwn7J-hRb7SEo-108" value="Dosagem" style="ellipse;whiteSpace=wrap;html=1;align=center;" parent="1" vertex="1">
          <mxGeometry x="3080" y="450.5" width="100" height="40" as="geometry" />
        </mxCell>
        <mxCell id="rsmjsAigwn7J-hRb7SEo-109" value="" style="endArrow=none;html=1;rounded=0;exitX=0.5;exitY=0;exitDx=0;exitDy=0;" parent="1" source="rsmjsAigwn7J-hRb7SEo-108" edge="1">
          <mxGeometry width="50" height="50" relative="1" as="geometry">
            <mxPoint x="2558" y="338" as="sourcePoint" />
            <mxPoint x="2902" y="475" as="targetPoint" />
          </mxGeometry>
        </mxCell>
        <mxCell id="rsmjsAigwn7J-hRb7SEo-110" value="PrescMed" style="ellipse;whiteSpace=wrap;html=1;align=center;" parent="1" vertex="1">
          <mxGeometry x="2686" y="112" width="100" height="40" as="geometry" />
        </mxCell>
        <mxCell id="rsmjsAigwn7J-hRb7SEo-111" value="" style="endArrow=none;html=1;rounded=0;entryX=0.5;entryY=0;entryDx=0;entryDy=0;exitX=0;exitY=0.5;exitDx=0;exitDy=0;" parent="1" source="rsmjsAigwn7J-hRb7SEo-110" target="rsmjsAigwn7J-hRb7SEo-103" edge="1">
          <mxGeometry width="50" height="50" relative="1" as="geometry">
            <mxPoint x="2468" y="293" as="sourcePoint" />
            <mxPoint x="2518" y="243" as="targetPoint" />
          </mxGeometry>
        </mxCell>
        <mxCell id="rsmjsAigwn7J-hRb7SEo-115" value="" style="endArrow=none;html=1;rounded=0;entryX=1;entryY=0.5;entryDx=0;entryDy=0;exitX=0.5;exitY=0;exitDx=0;exitDy=0;" parent="1" source="rsmjsAigwn7J-hRb7SEo-116" target="rsmjsAigwn7J-hRb7SEo-103" edge="1">
          <mxGeometry width="50" height="50" relative="1" as="geometry">
            <mxPoint x="3140" y="269" as="sourcePoint" />
            <mxPoint x="3040" y="219" as="targetPoint" />
          </mxGeometry>
        </mxCell>
        <mxCell id="rsmjsAigwn7J-hRb7SEo-116" value="Quantidade" style="ellipse;whiteSpace=wrap;html=1;align=center;" parent="1" vertex="1">
          <mxGeometry x="2696" y="193" width="100" height="40" as="geometry" />
        </mxCell>
        <mxCell id="TWBt29EpJbZGd_mm3P69-2" value="" style="endArrow=none;html=1;rounded=0;entryX=0.5;entryY=1;entryDx=0;entryDy=0;" parent="1" target="TWBt29EpJbZGd_mm3P69-1" edge="1">
          <mxGeometry width="50" height="50" relative="1" as="geometry">
            <mxPoint x="622" y="314" as="sourcePoint" />
            <mxPoint x="622" y="184" as="targetPoint" />
          </mxGeometry>
        </mxCell>
        <mxCell id="TWBt29EpJbZGd_mm3P69-13" style="edgeStyle=orthogonalEdgeStyle;rounded=0;orthogonalLoop=1;jettySize=auto;html=1;exitX=0;exitY=0.5;exitDx=0;exitDy=0;entryX=0.5;entryY=0;entryDx=0;entryDy=0;endArrow=none;endFill=0;" parent="1" source="TWBt29EpJbZGd_mm3P69-1" target="LMSI0sBjddlQzyL4ytFz-29" edge="1">
          <mxGeometry relative="1" as="geometry">
            <mxPoint x="190" y="314" as="targetPoint" />
            <Array as="points">
              <mxPoint x="592" y="290" />
              <mxPoint x="202" y="290" />
            </Array>
          </mxGeometry>
        </mxCell>
        <mxCell id="TWBt29EpJbZGd_mm3P69-14" style="edgeStyle=orthogonalEdgeStyle;rounded=0;orthogonalLoop=1;jettySize=auto;html=1;exitX=1;exitY=0.5;exitDx=0;exitDy=0;entryX=0;entryY=0.25;entryDx=0;entryDy=0;endArrow=none;endFill=0;" parent="1" source="TWBt29EpJbZGd_mm3P69-1" target="LMSI0sBjddlQzyL4ytFz-30" edge="1">
          <mxGeometry relative="1" as="geometry" />
        </mxCell>
        <mxCell id="TWBt29EpJbZGd_mm3P69-1" value="d" style="ellipse;whiteSpace=wrap;html=1;align=center;fontSize=14;" parent="1" vertex="1">
          <mxGeometry x="592" y="294" width="60" height="40" as="geometry" />
        </mxCell>
        <mxCell id="TWBt29EpJbZGd_mm3P69-3" value="" style="shape=xor;whiteSpace=wrap;html=1;rotation=-180;" parent="1" vertex="1">
          <mxGeometry x="409.5" y="274" width="12.5" height="80" as="geometry" />
        </mxCell>
        <mxCell id="TWBt29EpJbZGd_mm3P69-8" value="" style="shape=xor;whiteSpace=wrap;html=1;rotation=135;" parent="1" vertex="1">
          <mxGeometry x="509.5" y="344" width="12.5" height="80" as="geometry" />
        </mxCell>
        <mxCell id="TWBt29EpJbZGd_mm3P69-9" value="" style="shape=xor;whiteSpace=wrap;html=1;rotation=0;" parent="1" vertex="1">
          <mxGeometry x="725.75" y="280" width="12.5" height="80" as="geometry" />
        </mxCell>
        <mxCell id="TWBt29EpJbZGd_mm3P69-16" value="Relacionado" style="shape=rhombus;perimeter=rhombusPerimeter;whiteSpace=wrap;html=1;align=center;" parent="1" vertex="1">
          <mxGeometry x="870" y="480" width="120" height="60" as="geometry" />
        </mxCell>
        <mxCell id="TWBt29EpJbZGd_mm3P69-17" value="" style="endArrow=none;html=1;rounded=0;entryX=0.5;entryY=1;entryDx=0;entryDy=0;exitX=0.5;exitY=0;exitDx=0;exitDy=0;shape=link;" parent="1" source="TWBt29EpJbZGd_mm3P69-16" target="LMSI0sBjddlQzyL4ytFz-30" edge="1">
          <mxGeometry relative="1" as="geometry">
            <mxPoint x="800" y="555" as="sourcePoint" />
            <mxPoint x="791" y="354" as="targetPoint" />
          </mxGeometry>
        </mxCell>
        <mxCell id="TWBt29EpJbZGd_mm3P69-18" value="N" style="resizable=0;html=1;whiteSpace=wrap;align=right;verticalAlign=bottom;" parent="TWBt29EpJbZGd_mm3P69-17" connectable="0" vertex="1">
          <mxGeometry x="1" relative="1" as="geometry" />
        </mxCell>
        <mxCell id="TWBt29EpJbZGd_mm3P69-19" value="" style="html=1;rounded=0;entryX=0.25;entryY=0;entryDx=0;entryDy=0;exitX=0.5;exitY=1;exitDx=0;exitDy=0;endArrow=none;endFill=0;" parent="1" source="TWBt29EpJbZGd_mm3P69-16" target="rsmjsAigwn7J-hRb7SEo-94" edge="1">
          <mxGeometry relative="1" as="geometry">
            <mxPoint x="899.5" y="602" as="sourcePoint" />
            <mxPoint x="899.5" y="690" as="targetPoint" />
          </mxGeometry>
        </mxCell>
        <mxCell id="TWBt29EpJbZGd_mm3P69-20" value="1" style="resizable=0;html=1;whiteSpace=wrap;align=right;verticalAlign=bottom;" parent="TWBt29EpJbZGd_mm3P69-19" connectable="0" vertex="1">
          <mxGeometry x="1" relative="1" as="geometry">
            <mxPoint x="10" y="2" as="offset" />
          </mxGeometry>
        </mxCell>
        <mxCell id="TWBt29EpJbZGd_mm3P69-25" style="edgeStyle=orthogonalEdgeStyle;rounded=0;orthogonalLoop=1;jettySize=auto;html=1;exitX=1;exitY=0.5;exitDx=0;exitDy=0;endArrow=none;endFill=0;" parent="1" source="TWBt29EpJbZGd_mm3P69-21" target="rsmjsAigwn7J-hRb7SEo-94" edge="1">
          <mxGeometry relative="1" as="geometry" />
        </mxCell>
        <mxCell id="TWBt29EpJbZGd_mm3P69-21" value="Sede" style="ellipse;whiteSpace=wrap;html=1;align=center;" parent="1" vertex="1">
          <mxGeometry x="810" y="670" width="100" height="40" as="geometry" />
        </mxCell>
        <mxCell id="TWBt29EpJbZGd_mm3P69-27" style="edgeStyle=orthogonalEdgeStyle;rounded=0;orthogonalLoop=1;jettySize=auto;html=1;exitX=0;exitY=0.5;exitDx=0;exitDy=0;entryX=1;entryY=0.5;entryDx=0;entryDy=0;endArrow=none;endFill=0;" parent="1" source="TWBt29EpJbZGd_mm3P69-26" target="rsmjsAigwn7J-hRb7SEo-94" edge="1">
          <mxGeometry relative="1" as="geometry" />
        </mxCell>
        <mxCell id="TWBt29EpJbZGd_mm3P69-26" value="Localização" style="ellipse;whiteSpace=wrap;html=1;align=center;" parent="1" vertex="1">
          <mxGeometry x="1169" y="640" width="100" height="40" as="geometry" />
        </mxCell>
        <mxCell id="TWBt29EpJbZGd_mm3P69-30" value="" style="html=1;rounded=0;entryX=0.5;entryY=0;entryDx=0;entryDy=0;exitX=0;exitY=0.5;exitDx=0;exitDy=0;endArrow=none;endFill=0;" parent="1" source="TWBt29EpJbZGd_mm3P69-32" target="LMSI0sBjddlQzyL4ytFz-19" edge="1">
          <mxGeometry relative="1" as="geometry">
            <mxPoint x="1020" y="150" as="sourcePoint" />
            <mxPoint x="700" y="430" as="targetPoint" />
          </mxGeometry>
        </mxCell>
        <mxCell id="TWBt29EpJbZGd_mm3P69-31" value="1" style="resizable=0;html=1;whiteSpace=wrap;align=right;verticalAlign=bottom;" parent="TWBt29EpJbZGd_mm3P69-30" connectable="0" vertex="1">
          <mxGeometry x="1" relative="1" as="geometry" />
        </mxCell>
        <mxCell id="TWBt29EpJbZGd_mm3P69-32" value="Efetua" style="shape=rhombus;perimeter=rhombusPerimeter;whiteSpace=wrap;html=1;align=center;" parent="1" vertex="1">
          <mxGeometry x="1032" y="80" width="120" height="60" as="geometry" />
        </mxCell>
        <mxCell id="TWBt29EpJbZGd_mm3P69-33" value="" style="shape=link;html=1;rounded=0;entryX=0;entryY=0.25;entryDx=0;entryDy=0;exitX=1;exitY=0.5;exitDx=0;exitDy=0;" parent="1" source="TWBt29EpJbZGd_mm3P69-32" target="rsmjsAigwn7J-hRb7SEo-54" edge="1">
          <mxGeometry relative="1" as="geometry">
            <mxPoint x="1190" y="64" as="sourcePoint" />
            <mxPoint x="1340" y="164" as="targetPoint" />
            <Array as="points" />
          </mxGeometry>
        </mxCell>
        <mxCell id="TWBt29EpJbZGd_mm3P69-34" value="N" style="resizable=0;html=1;whiteSpace=wrap;align=right;verticalAlign=bottom;" parent="TWBt29EpJbZGd_mm3P69-33" connectable="0" vertex="1">
          <mxGeometry x="1" relative="1" as="geometry" />
        </mxCell>
        <mxCell id="TWBt29EpJbZGd_mm3P69-37" style="edgeStyle=orthogonalEdgeStyle;rounded=0;orthogonalLoop=1;jettySize=auto;html=1;exitX=0;exitY=0.5;exitDx=0;exitDy=0;entryX=1;entryY=1;entryDx=0;entryDy=0;endArrow=none;endFill=0;" parent="1" source="TWBt29EpJbZGd_mm3P69-36" target="LMSI0sBjddlQzyL4ytFz-30" edge="1">
          <mxGeometry relative="1" as="geometry" />
        </mxCell>
        <mxCell id="TWBt29EpJbZGd_mm3P69-36" value="DtaContratacao" style="ellipse;whiteSpace=wrap;html=1;align=center;" parent="1" vertex="1">
          <mxGeometry x="1000" y="400" width="100" height="40" as="geometry" />
        </mxCell>
        <mxCell id="TWBt29EpJbZGd_mm3P69-38" value="" style="shape=link;html=1;rounded=0;exitX=1;exitY=0.25;exitDx=0;exitDy=0;entryX=0;entryY=0.5;entryDx=0;entryDy=0;" parent="1" source="rsmjsAigwn7J-hRb7SEo-54" target="wAgen8mTzL_rDSJyRfY7-8" edge="1">
          <mxGeometry relative="1" as="geometry">
            <mxPoint x="1660" y="50" as="sourcePoint" />
            <mxPoint x="1700" y="90" as="targetPoint" />
          </mxGeometry>
        </mxCell>
        <mxCell id="TWBt29EpJbZGd_mm3P69-39" value="1" style="resizable=0;html=1;whiteSpace=wrap;align=left;verticalAlign=bottom;" parent="TWBt29EpJbZGd_mm3P69-38" connectable="0" vertex="1">
          <mxGeometry x="-1" relative="1" as="geometry" />
        </mxCell>
        <mxCell id="TWBt29EpJbZGd_mm3P69-41" value="" style="html=1;rounded=0;entryX=0.75;entryY=1;entryDx=0;entryDy=0;exitX=0.5;exitY=0;exitDx=0;exitDy=0;endArrow=none;endFill=0;" parent="1" source="wAgen8mTzL_rDSJyRfY7-13" target="rsmjsAigwn7J-hRb7SEo-54" edge="1">
          <mxGeometry relative="1" as="geometry">
            <mxPoint x="1670" y="170" as="sourcePoint" />
            <mxPoint x="1818" y="63" as="targetPoint" />
          </mxGeometry>
        </mxCell>
        <mxCell id="TWBt29EpJbZGd_mm3P69-43" value="1" style="resizable=0;html=1;whiteSpace=wrap;align=right;verticalAlign=bottom;" parent="TWBt29EpJbZGd_mm3P69-41" connectable="0" vertex="1">
          <mxGeometry x="1" relative="1" as="geometry" />
        </mxCell>
        <mxCell id="TWBt29EpJbZGd_mm3P69-44" value="" style="endArrow=none;html=1;rounded=0;entryX=1;entryY=0.25;entryDx=0;entryDy=0;exitX=0;exitY=0.5;exitDx=0;exitDy=0;" parent="1" source="TWBt29EpJbZGd_mm3P69-46" target="rsmjsAigwn7J-hRb7SEo-44" edge="1">
          <mxGeometry relative="1" as="geometry">
            <mxPoint x="1850" y="570" as="sourcePoint" />
            <mxPoint x="1934" y="580" as="targetPoint" />
          </mxGeometry>
        </mxCell>
        <mxCell id="TWBt29EpJbZGd_mm3P69-45" value="1" style="resizable=0;html=1;whiteSpace=wrap;align=right;verticalAlign=bottom;" parent="TWBt29EpJbZGd_mm3P69-44" connectable="0" vertex="1">
          <mxGeometry x="1" relative="1" as="geometry" />
        </mxCell>
        <mxCell id="TWBt29EpJbZGd_mm3P69-46" value="Gasta" style="shape=rhombus;perimeter=rhombusPerimeter;whiteSpace=wrap;html=1;align=center;" parent="1" vertex="1">
          <mxGeometry x="1746" y="553" width="120" height="60" as="geometry" />
        </mxCell>
        <mxCell id="TWBt29EpJbZGd_mm3P69-48" value="" style="shape=link;html=1;rounded=0;entryX=0;entryY=0.5;entryDx=0;entryDy=0;exitX=1;exitY=0.5;exitDx=0;exitDy=0;" parent="1" source="TWBt29EpJbZGd_mm3P69-46" target="rsmjsAigwn7J-hRb7SEo-72" edge="1">
          <mxGeometry relative="1" as="geometry">
            <mxPoint x="1974" y="572.5" as="sourcePoint" />
            <mxPoint x="2014" y="472.5" as="targetPoint" />
          </mxGeometry>
        </mxCell>
        <mxCell id="TWBt29EpJbZGd_mm3P69-49" value="N" style="resizable=0;html=1;whiteSpace=wrap;align=right;verticalAlign=bottom;" parent="TWBt29EpJbZGd_mm3P69-48" connectable="0" vertex="1">
          <mxGeometry x="1" relative="1" as="geometry" />
        </mxCell>
        <mxCell id="TWBt29EpJbZGd_mm3P69-51" style="edgeStyle=orthogonalEdgeStyle;rounded=0;orthogonalLoop=1;jettySize=auto;html=1;exitX=0;exitY=0;exitDx=0;exitDy=0;entryX=0.5;entryY=1;entryDx=0;entryDy=0;endArrow=none;endFill=0;" parent="1" source="TWBt29EpJbZGd_mm3P69-50" target="rsmjsAigwn7J-hRb7SEo-44" edge="1">
          <mxGeometry relative="1" as="geometry" />
        </mxCell>
        <mxCell id="TWBt29EpJbZGd_mm3P69-50" value="E-Mail" style="ellipse;whiteSpace=wrap;html=1;align=center;" parent="1" vertex="1">
          <mxGeometry x="1704" y="660" width="100" height="40" as="geometry" />
        </mxCell>
        <mxCell id="TWBt29EpJbZGd_mm3P69-52" value="" style="shape=link;html=1;rounded=0;entryX=0;entryY=0.5;entryDx=0;entryDy=0;exitX=1;exitY=0.5;exitDx=0;exitDy=0;" parent="1" source="TWBt29EpJbZGd_mm3P69-54" target="rsmjsAigwn7J-hRb7SEo-44" edge="1">
          <mxGeometry relative="1" as="geometry">
            <mxPoint x="1190" y="520" as="sourcePoint" />
            <mxPoint x="1623" y="492" as="targetPoint" />
          </mxGeometry>
        </mxCell>
        <mxCell id="TWBt29EpJbZGd_mm3P69-53" value="1" style="resizable=0;html=1;whiteSpace=wrap;align=right;verticalAlign=bottom;" parent="TWBt29EpJbZGd_mm3P69-52" connectable="0" vertex="1">
          <mxGeometry x="1" relative="1" as="geometry" />
        </mxCell>
        <mxCell id="TWBt29EpJbZGd_mm3P69-54" value="Pertence" style="shape=rhombus;perimeter=rhombusPerimeter;whiteSpace=wrap;html=1;align=center;" parent="1" vertex="1">
          <mxGeometry x="1120" y="508" width="120" height="60" as="geometry" />
        </mxCell>
        <mxCell id="TWBt29EpJbZGd_mm3P69-55" value="" style="shape=link;html=1;rounded=0;entryX=0.667;entryY=-0.033;entryDx=0;entryDy=0;exitX=0;exitY=1;exitDx=0;exitDy=0;entryPerimeter=0;" parent="1" source="TWBt29EpJbZGd_mm3P69-54" target="rsmjsAigwn7J-hRb7SEo-94" edge="1">
          <mxGeometry relative="1" as="geometry">
            <mxPoint x="1032" y="598" as="sourcePoint" />
            <mxPoint x="847" y="718" as="targetPoint" />
          </mxGeometry>
        </mxCell>
        <mxCell id="TWBt29EpJbZGd_mm3P69-56" value="N" style="resizable=0;html=1;whiteSpace=wrap;align=right;verticalAlign=bottom;" parent="TWBt29EpJbZGd_mm3P69-55" connectable="0" vertex="1">
          <mxGeometry x="1" relative="1" as="geometry" />
        </mxCell>
        <mxCell id="TWBt29EpJbZGd_mm3P69-58" value="" style="edgeStyle=orthogonalEdgeStyle;rounded=0;orthogonalLoop=1;jettySize=auto;html=1;endArrow=none;endFill=0;" parent="1" source="TWBt29EpJbZGd_mm3P69-61" target="TWBt29EpJbZGd_mm3P69-63" edge="1">
          <mxGeometry relative="1" as="geometry" />
        </mxCell>
        <mxCell id="TWBt29EpJbZGd_mm3P69-59" style="edgeStyle=orthogonalEdgeStyle;rounded=0;orthogonalLoop=1;jettySize=auto;html=1;exitX=1;exitY=0.25;exitDx=0;exitDy=0;entryX=0;entryY=0.5;entryDx=0;entryDy=0;endArrow=none;endFill=0;" parent="1" source="TWBt29EpJbZGd_mm3P69-61" target="TWBt29EpJbZGd_mm3P69-64" edge="1">
          <mxGeometry relative="1" as="geometry">
            <mxPoint x="740" y="560" as="targetPoint" />
          </mxGeometry>
        </mxCell>
        <mxCell id="TWBt29EpJbZGd_mm3P69-60" style="edgeStyle=orthogonalEdgeStyle;rounded=0;orthogonalLoop=1;jettySize=auto;html=1;exitX=1;exitY=1;exitDx=0;exitDy=0;entryX=0;entryY=0.5;entryDx=0;entryDy=0;endArrow=none;endFill=0;" parent="1" source="TWBt29EpJbZGd_mm3P69-61" target="TWBt29EpJbZGd_mm3P69-66" edge="1">
          <mxGeometry relative="1" as="geometry">
            <mxPoint x="740" y="627" as="targetPoint" />
          </mxGeometry>
        </mxCell>
        <mxCell id="TWBt29EpJbZGd_mm3P69-61" value="Escala_Salarial" style="whiteSpace=wrap;html=1;align=center;" parent="1" vertex="1">
          <mxGeometry x="612.64" y="540" width="100" height="40" as="geometry" />
        </mxCell>
        <mxCell id="TWBt29EpJbZGd_mm3P69-67" style="edgeStyle=orthogonalEdgeStyle;rounded=0;orthogonalLoop=1;jettySize=auto;html=1;exitX=1;exitY=0.5;exitDx=0;exitDy=0;entryX=0;entryY=0.5;entryDx=0;entryDy=0;endArrow=none;endFill=0;" parent="1" target="TWBt29EpJbZGd_mm3P69-61" edge="1">
          <mxGeometry relative="1" as="geometry">
            <mxPoint x="580" y="587" as="sourcePoint" />
          </mxGeometry>
        </mxCell>
        <mxCell id="TWBt29EpJbZGd_mm3P69-62" value="&lt;u&gt;id&lt;/u&gt;" style="ellipse;whiteSpace=wrap;html=1;align=center;" parent="1" vertex="1">
          <mxGeometry x="484.5" y="563" width="100" height="40" as="geometry" />
        </mxCell>
        <mxCell id="TWBt29EpJbZGd_mm3P69-63" value="Min_Salario" style="ellipse;whiteSpace=wrap;html=1;align=center;" parent="1" vertex="1">
          <mxGeometry x="612.64" y="657" width="100" height="40" as="geometry" />
        </mxCell>
        <mxCell id="TWBt29EpJbZGd_mm3P69-64" value="Max_Salario" style="ellipse;whiteSpace=wrap;html=1;align=center;" parent="1" vertex="1">
          <mxGeometry x="740" y="513" width="100" height="40" as="geometry" />
        </mxCell>
        <mxCell id="TWBt29EpJbZGd_mm3P69-66" value="&lt;div&gt;Bonus&lt;/div&gt;" style="ellipse;whiteSpace=wrap;html=1;align=center;" parent="1" vertex="1">
          <mxGeometry x="738.25" y="598" width="100" height="40" as="geometry" />
        </mxCell>
        <mxCell id="TWBt29EpJbZGd_mm3P69-68" value="" style="shape=link;html=1;rounded=0;entryX=0;entryY=1;entryDx=0;entryDy=0;" parent="1" source="TWBt29EpJbZGd_mm3P69-70" target="LMSI0sBjddlQzyL4ytFz-30" edge="1">
          <mxGeometry relative="1" as="geometry">
            <mxPoint x="690" y="430" as="sourcePoint" />
            <mxPoint x="230" y="210" as="targetPoint" />
          </mxGeometry>
        </mxCell>
        <mxCell id="TWBt29EpJbZGd_mm3P69-69" value="N" style="resizable=0;html=1;whiteSpace=wrap;align=right;verticalAlign=bottom;" parent="TWBt29EpJbZGd_mm3P69-68" connectable="0" vertex="1">
          <mxGeometry x="1" relative="1" as="geometry" />
        </mxCell>
        <mxCell id="TWBt29EpJbZGd_mm3P69-70" value="Recebe" style="shape=rhombus;perimeter=rhombusPerimeter;whiteSpace=wrap;html=1;align=center;" parent="1" vertex="1">
          <mxGeometry x="602.64" y="400" width="120" height="60" as="geometry" />
        </mxCell>
        <mxCell id="TWBt29EpJbZGd_mm3P69-71" value="" style="endArrow=none;html=1;rounded=0;entryX=0.5;entryY=0;entryDx=0;entryDy=0;exitX=0.5;exitY=1;exitDx=0;exitDy=0;shape=link;" parent="1" source="TWBt29EpJbZGd_mm3P69-70" target="TWBt29EpJbZGd_mm3P69-61" edge="1">
          <mxGeometry relative="1" as="geometry">
            <mxPoint x="620" y="250" as="sourcePoint" />
            <mxPoint x="870" y="230" as="targetPoint" />
          </mxGeometry>
        </mxCell>
        <mxCell id="TWBt29EpJbZGd_mm3P69-72" value="1" style="resizable=0;html=1;whiteSpace=wrap;align=right;verticalAlign=bottom;" parent="TWBt29EpJbZGd_mm3P69-71" connectable="0" vertex="1">
          <mxGeometry x="1" relative="1" as="geometry">
            <mxPoint x="-4" as="offset" />
          </mxGeometry>
        </mxCell>
        <mxCell id="TWBt29EpJbZGd_mm3P69-80" value="" style="endArrow=none;html=1;rounded=0;entryX=0;entryY=1;entryDx=0;entryDy=0;exitX=1;exitY=0.5;exitDx=0;exitDy=0;" parent="1" source="TWBt29EpJbZGd_mm3P69-82" target="rsmjsAigwn7J-hRb7SEo-103" edge="1">
          <mxGeometry relative="1" as="geometry">
            <mxPoint x="2370" y="330" as="sourcePoint" />
            <mxPoint x="2250" y="393" as="targetPoint" />
          </mxGeometry>
        </mxCell>
        <mxCell id="TWBt29EpJbZGd_mm3P69-81" value="1" style="resizable=0;html=1;whiteSpace=wrap;align=right;verticalAlign=bottom;" parent="TWBt29EpJbZGd_mm3P69-80" connectable="0" vertex="1">
          <mxGeometry x="1" relative="1" as="geometry" />
        </mxCell>
        <mxCell id="TWBt29EpJbZGd_mm3P69-82" value="Comercializado" style="shape=rhombus;perimeter=rhombusPerimeter;whiteSpace=wrap;html=1;align=center;" parent="1" vertex="1">
          <mxGeometry x="2240" y="102" width="120" height="60" as="geometry" />
        </mxCell>
        <mxCell id="TWBt29EpJbZGd_mm3P69-83" value="" style="shape=link;html=1;rounded=0;exitX=0;exitY=0.5;exitDx=0;exitDy=0;entryX=1;entryY=0.5;entryDx=0;entryDy=0;" parent="1" source="TWBt29EpJbZGd_mm3P69-82" target="rsmjsAigwn7J-hRb7SEo-63" edge="1">
          <mxGeometry relative="1" as="geometry">
            <mxPoint x="1130" y="1130" as="sourcePoint" />
            <mxPoint x="2052" y="480" as="targetPoint" />
          </mxGeometry>
        </mxCell>
        <mxCell id="TWBt29EpJbZGd_mm3P69-84" value="N" style="resizable=0;html=1;whiteSpace=wrap;align=right;verticalAlign=bottom;" parent="TWBt29EpJbZGd_mm3P69-83" connectable="0" vertex="1">
          <mxGeometry x="1" relative="1" as="geometry" />
        </mxCell>
        <mxCell id="TWBt29EpJbZGd_mm3P69-85" value="Preco" style="ellipse;whiteSpace=wrap;html=1;align=center;" parent="1" vertex="1">
          <mxGeometry x="2070" y="109" width="91.5" height="31" as="geometry" />
        </mxCell>
        <mxCell id="TWBt29EpJbZGd_mm3P69-87" value="" style="html=1;rounded=0;entryX=0;entryY=1;entryDx=0;entryDy=0;exitX=0.5;exitY=0;exitDx=0;exitDy=0;endArrow=none;endFill=0;" parent="1" source="TWBt29EpJbZGd_mm3P69-89" target="rsmjsAigwn7J-hRb7SEo-44" edge="1">
          <mxGeometry relative="1" as="geometry">
            <mxPoint x="1320" y="740" as="sourcePoint" />
            <mxPoint x="1370" y="780" as="targetPoint" />
          </mxGeometry>
        </mxCell>
        <mxCell id="TWBt29EpJbZGd_mm3P69-88" value="N" style="resizable=0;html=1;whiteSpace=wrap;align=right;verticalAlign=bottom;" parent="TWBt29EpJbZGd_mm3P69-87" connectable="0" vertex="1">
          <mxGeometry x="1" relative="1" as="geometry" />
        </mxCell>
        <mxCell id="TWBt29EpJbZGd_mm3P69-89" value="Contem" style="shape=rhombus;perimeter=rhombusPerimeter;whiteSpace=wrap;html=1;align=center;" parent="1" vertex="1">
          <mxGeometry x="1220" y="747" width="120" height="60" as="geometry" />
        </mxCell>
        <mxCell id="TWBt29EpJbZGd_mm3P69-92" value="" style="shape=link;html=1;rounded=0;exitX=0.5;exitY=1;exitDx=0;exitDy=0;entryX=0.5;entryY=0;entryDx=0;entryDy=0;" parent="1" source="TWBt29EpJbZGd_mm3P69-89" target="rsmjsAigwn7J-hRb7SEo-14" edge="1">
          <mxGeometry relative="1" as="geometry">
            <mxPoint x="1430" y="950" as="sourcePoint" />
            <mxPoint x="1590" y="950" as="targetPoint" />
          </mxGeometry>
        </mxCell>
        <mxCell id="TWBt29EpJbZGd_mm3P69-93" value="N" style="resizable=0;html=1;whiteSpace=wrap;align=right;verticalAlign=bottom;" parent="TWBt29EpJbZGd_mm3P69-92" connectable="0" vertex="1">
          <mxGeometry x="1" relative="1" as="geometry" />
        </mxCell>
        <mxCell id="TWBt29EpJbZGd_mm3P69-103" value="Importa" style="shape=rhombus;perimeter=rhombusPerimeter;whiteSpace=wrap;html=1;align=center;" parent="1" vertex="1">
          <mxGeometry x="2450" y="314" width="120" height="60" as="geometry" />
        </mxCell>
        <mxCell id="TWBt29EpJbZGd_mm3P69-107" value="" style="shape=link;html=1;rounded=0;exitX=0.5;exitY=0;exitDx=0;exitDy=0;entryX=0.5;entryY=1;entryDx=0;entryDy=0;" parent="1" source="TWBt29EpJbZGd_mm3P69-103" target="rsmjsAigwn7J-hRb7SEo-103" edge="1">
          <mxGeometry relative="1" as="geometry">
            <mxPoint x="2570" y="360" as="sourcePoint" />
            <mxPoint x="2730" y="360" as="targetPoint" />
          </mxGeometry>
        </mxCell>
        <mxCell id="TWBt29EpJbZGd_mm3P69-108" value="N" style="resizable=0;html=1;whiteSpace=wrap;align=right;verticalAlign=bottom;" parent="TWBt29EpJbZGd_mm3P69-107" connectable="0" vertex="1">
          <mxGeometry x="1" relative="1" as="geometry" />
        </mxCell>
        <mxCell id="TWBt29EpJbZGd_mm3P69-109" value="" style="shape=link;html=1;rounded=0;exitX=0.5;exitY=1;exitDx=0;exitDy=0;entryX=0.5;entryY=0;entryDx=0;entryDy=0;" parent="1" source="TWBt29EpJbZGd_mm3P69-103" target="rsmjsAigwn7J-hRb7SEo-22" edge="1">
          <mxGeometry relative="1" as="geometry">
            <mxPoint x="2520" y="324" as="sourcePoint" />
            <mxPoint x="2606" y="223" as="targetPoint" />
          </mxGeometry>
        </mxCell>
        <mxCell id="TWBt29EpJbZGd_mm3P69-110" value="M" style="resizable=0;html=1;whiteSpace=wrap;align=right;verticalAlign=bottom;" parent="TWBt29EpJbZGd_mm3P69-109" connectable="0" vertex="1">
          <mxGeometry x="1" relative="1" as="geometry" />
        </mxCell>
        <mxCell id="TWBt29EpJbZGd_mm3P69-111" value="Integra" style="shape=rhombus;perimeter=rhombusPerimeter;whiteSpace=wrap;html=1;align=center;" parent="1" vertex="1">
          <mxGeometry x="2676" y="280" width="120" height="60" as="geometry" />
        </mxCell>
        <mxCell id="TWBt29EpJbZGd_mm3P69-112" value="" style="endArrow=none;html=1;rounded=0;exitX=1;exitY=1;exitDx=0;exitDy=0;entryX=0.25;entryY=0;entryDx=0;entryDy=0;shape=link;" parent="1" source="TWBt29EpJbZGd_mm3P69-111" target="rsmjsAigwn7J-hRb7SEo-29" edge="1">
          <mxGeometry relative="1" as="geometry">
            <mxPoint x="2750" y="410" as="sourcePoint" />
            <mxPoint x="2910" y="410" as="targetPoint" />
          </mxGeometry>
        </mxCell>
        <mxCell id="TWBt29EpJbZGd_mm3P69-113" value="1" style="resizable=0;html=1;whiteSpace=wrap;align=right;verticalAlign=bottom;" parent="TWBt29EpJbZGd_mm3P69-112" connectable="0" vertex="1">
          <mxGeometry x="1" relative="1" as="geometry">
            <mxPoint x="7" as="offset" />
          </mxGeometry>
        </mxCell>
        <mxCell id="TWBt29EpJbZGd_mm3P69-114" value="" style="endArrow=none;html=1;rounded=0;exitX=0;exitY=0;exitDx=0;exitDy=0;entryX=1;entryY=1;entryDx=0;entryDy=0;" parent="1" source="TWBt29EpJbZGd_mm3P69-111" target="rsmjsAigwn7J-hRb7SEo-103" edge="1">
          <mxGeometry relative="1" as="geometry">
            <mxPoint x="2660" y="370" as="sourcePoint" />
            <mxPoint x="2820" y="370" as="targetPoint" />
          </mxGeometry>
        </mxCell>
        <mxCell id="TWBt29EpJbZGd_mm3P69-115" value="N" style="resizable=0;html=1;whiteSpace=wrap;align=right;verticalAlign=bottom;" parent="TWBt29EpJbZGd_mm3P69-114" connectable="0" vertex="1">
          <mxGeometry x="1" relative="1" as="geometry" />
        </mxCell>
        <mxCell id="J32oym8TEqkth-K1LMxm-2" value="dataImport" style="ellipse;whiteSpace=wrap;html=1;align=center;" parent="1" vertex="1">
          <mxGeometry x="2546" y="385.5" width="100" height="40" as="geometry" />
        </mxCell>
        <mxCell id="J32oym8TEqkth-K1LMxm-3" value="horaImport" style="ellipse;whiteSpace=wrap;html=1;align=center;" parent="1" vertex="1">
          <mxGeometry x="2338" y="330" width="100" height="40" as="geometry" />
        </mxCell>
        <mxCell id="J32oym8TEqkth-K1LMxm-4" value="quantidade" style="ellipse;whiteSpace=wrap;html=1;align=center;" parent="1" vertex="1">
          <mxGeometry x="2556" y="294" width="100" height="40" as="geometry" />
        </mxCell>
        <mxCell id="J32oym8TEqkth-K1LMxm-5" value="" style="endArrow=none;html=1;rounded=0;entryX=1;entryY=0;entryDx=0;entryDy=0;exitX=0;exitY=0.5;exitDx=0;exitDy=0;" parent="1" source="TWBt29EpJbZGd_mm3P69-103" target="J32oym8TEqkth-K1LMxm-3" edge="1">
          <mxGeometry width="50" height="50" relative="1" as="geometry">
            <mxPoint x="2486" y="112" as="sourcePoint" />
            <mxPoint x="2606" y="163" as="targetPoint" />
          </mxGeometry>
        </mxCell>
        <mxCell id="J32oym8TEqkth-K1LMxm-6" value="" style="endArrow=none;html=1;rounded=0;entryX=0;entryY=0.5;entryDx=0;entryDy=0;exitX=1;exitY=0;exitDx=0;exitDy=0;" parent="1" source="TWBt29EpJbZGd_mm3P69-103" target="J32oym8TEqkth-K1LMxm-4" edge="1">
          <mxGeometry width="50" height="50" relative="1" as="geometry">
            <mxPoint x="2496" y="122" as="sourcePoint" />
            <mxPoint x="2616" y="173" as="targetPoint" />
          </mxGeometry>
        </mxCell>
        <mxCell id="J32oym8TEqkth-K1LMxm-7" value="" style="endArrow=none;html=1;rounded=0;entryX=0.5;entryY=0;entryDx=0;entryDy=0;exitX=1;exitY=1;exitDx=0;exitDy=0;" parent="1" source="TWBt29EpJbZGd_mm3P69-103" target="J32oym8TEqkth-K1LMxm-2" edge="1">
          <mxGeometry width="50" height="50" relative="1" as="geometry">
            <mxPoint x="2506" y="132" as="sourcePoint" />
            <mxPoint x="2626" y="183" as="targetPoint" />
          </mxGeometry>
        </mxCell>
        <mxCell id="wAgen8mTzL_rDSJyRfY7-2" value="idEstabelecimento" style="ellipse;whiteSpace=wrap;html=1;align=center;" parent="1" vertex="1">
          <mxGeometry x="1295" y="827" width="110" height="47" as="geometry" />
        </mxCell>
        <mxCell id="wAgen8mTzL_rDSJyRfY7-3" value="idServico" style="ellipse;whiteSpace=wrap;html=1;align=center;" parent="1" vertex="1">
          <mxGeometry x="1100" y="807" width="110" height="47" as="geometry" />
        </mxCell>
        <mxCell id="wAgen8mTzL_rDSJyRfY7-4" value="" style="endArrow=none;html=1;rounded=0;entryX=0;entryY=0.5;entryDx=0;entryDy=0;exitX=1;exitY=0;exitDx=0;exitDy=0;" parent="1" source="wAgen8mTzL_rDSJyRfY7-3" target="TWBt29EpJbZGd_mm3P69-89" edge="1">
          <mxGeometry width="50" height="50" relative="1" as="geometry">
            <mxPoint x="1119" y="1025" as="sourcePoint" />
            <mxPoint x="1229" y="990" as="targetPoint" />
          </mxGeometry>
        </mxCell>
        <mxCell id="wAgen8mTzL_rDSJyRfY7-5" value="" style="endArrow=none;html=1;rounded=0;entryX=0.301;entryY=0.078;entryDx=0;entryDy=0;exitX=1;exitY=1;exitDx=0;exitDy=0;entryPerimeter=0;" parent="1" source="TWBt29EpJbZGd_mm3P69-89" target="wAgen8mTzL_rDSJyRfY7-2" edge="1">
          <mxGeometry width="50" height="50" relative="1" as="geometry">
            <mxPoint x="1129" y="1035" as="sourcePoint" />
            <mxPoint x="1239" y="1000" as="targetPoint" />
          </mxGeometry>
        </mxCell>
        <mxCell id="wAgen8mTzL_rDSJyRfY7-8" value="Associa" style="shape=rhombus;perimeter=rhombusPerimeter;whiteSpace=wrap;html=1;align=center;rotation=-15;" parent="1" vertex="1">
          <mxGeometry x="1709" y="40" width="120" height="60" as="geometry" />
        </mxCell>
        <mxCell id="wAgen8mTzL_rDSJyRfY7-9" value="" style="shape=link;html=1;rounded=0;exitX=1;exitY=0.5;exitDx=0;exitDy=0;entryX=0;entryY=0.5;entryDx=0;entryDy=0;" parent="1" source="wAgen8mTzL_rDSJyRfY7-8" target="rsmjsAigwn7J-hRb7SEo-63" edge="1">
          <mxGeometry relative="1" as="geometry">
            <mxPoint x="1888" y="49" as="sourcePoint" />
            <mxPoint x="1959" y="30" as="targetPoint" />
          </mxGeometry>
        </mxCell>
        <mxCell id="wAgen8mTzL_rDSJyRfY7-10" value="N" style="resizable=0;html=1;whiteSpace=wrap;align=left;verticalAlign=bottom;" parent="wAgen8mTzL_rDSJyRfY7-9" connectable="0" vertex="1">
          <mxGeometry x="-1" relative="1" as="geometry">
            <mxPoint x="73" y="-4" as="offset" />
          </mxGeometry>
        </mxCell>
        <mxCell id="wAgen8mTzL_rDSJyRfY7-12" value="" style="endArrow=none;html=1;rounded=0;entryX=0.5;entryY=1;entryDx=0;entryDy=0;exitX=0.5;exitY=0;exitDx=0;exitDy=0;" parent="1" source="TWBt29EpJbZGd_mm3P69-85" target="rsmjsAigwn7J-hRb7SEo-63" edge="1">
          <mxGeometry width="50" height="50" relative="1" as="geometry">
            <mxPoint x="2026" y="158" as="sourcePoint" />
            <mxPoint x="1958" y="90" as="targetPoint" />
          </mxGeometry>
        </mxCell>
        <mxCell id="wAgen8mTzL_rDSJyRfY7-13" value="Atribui" style="shape=rhombus;perimeter=rhombusPerimeter;whiteSpace=wrap;html=1;align=center;rotation=0;" parent="1" vertex="1">
          <mxGeometry x="1584" y="204" width="120" height="60" as="geometry" />
        </mxCell>
        <mxCell id="wAgen8mTzL_rDSJyRfY7-14" value="" style="shape=link;html=1;rounded=0;exitX=0.5;exitY=0;exitDx=0;exitDy=0;entryX=0.5;entryY=1;entryDx=0;entryDy=0;" parent="1" source="rsmjsAigwn7J-hRb7SEo-81" target="wAgen8mTzL_rDSJyRfY7-13" edge="1">
          <mxGeometry relative="1" as="geometry">
            <mxPoint x="1654" y="214" as="sourcePoint" />
            <mxPoint x="1620" y="160" as="targetPoint" />
          </mxGeometry>
        </mxCell>
        <mxCell id="wAgen8mTzL_rDSJyRfY7-15" value="1" style="resizable=0;html=1;whiteSpace=wrap;align=right;verticalAlign=bottom;" parent="wAgen8mTzL_rDSJyRfY7-14" connectable="0" vertex="1">
          <mxGeometry x="1" relative="1" as="geometry">
            <mxPoint x="-24" y="46" as="offset" />
          </mxGeometry>
        </mxCell>
        <mxCell id="wAgen8mTzL_rDSJyRfY7-16" value="Apresenta" style="shape=rhombus;perimeter=rhombusPerimeter;whiteSpace=wrap;html=1;align=center;rotation=-10;" parent="1" vertex="1">
          <mxGeometry x="2206" y="483" width="120" height="60" as="geometry" />
        </mxCell>
        <mxCell id="wAgen8mTzL_rDSJyRfY7-17" value="" style="shape=link;html=1;rounded=0;entryX=0;entryY=0.5;entryDx=0;entryDy=0;exitX=1;exitY=0;exitDx=0;exitDy=0;" parent="1" source="rsmjsAigwn7J-hRb7SEo-72" target="wAgen8mTzL_rDSJyRfY7-16" edge="1">
          <mxGeometry relative="1" as="geometry">
            <mxPoint x="1876" y="593" as="sourcePoint" />
            <mxPoint x="2030" y="608" as="targetPoint" />
          </mxGeometry>
        </mxCell>
        <mxCell id="wAgen8mTzL_rDSJyRfY7-18" value="N" style="resizable=0;html=1;whiteSpace=wrap;align=right;verticalAlign=bottom;" parent="wAgen8mTzL_rDSJyRfY7-17" connectable="0" vertex="1">
          <mxGeometry x="1" relative="1" as="geometry">
            <mxPoint x="-67" y="39" as="offset" />
          </mxGeometry>
        </mxCell>
        <mxCell id="wAgen8mTzL_rDSJyRfY7-19" value="" style="shape=link;html=1;rounded=0;entryX=0;entryY=0.5;entryDx=0;entryDy=0;exitX=1;exitY=0.5;exitDx=0;exitDy=0;" parent="1" source="wAgen8mTzL_rDSJyRfY7-16" target="rsmjsAigwn7J-hRb7SEo-22" edge="1">
          <mxGeometry relative="1" as="geometry">
            <mxPoint x="2150" y="578" as="sourcePoint" />
            <mxPoint x="2217" y="533" as="targetPoint" />
          </mxGeometry>
        </mxCell>
        <mxCell id="wAgen8mTzL_rDSJyRfY7-20" value="1" style="resizable=0;html=1;whiteSpace=wrap;align=right;verticalAlign=bottom;" parent="wAgen8mTzL_rDSJyRfY7-19" connectable="0" vertex="1">
          <mxGeometry x="1" relative="1" as="geometry">
            <mxPoint x="-7" y="25" as="offset" />
          </mxGeometry>
        </mxCell>
        <mxCell id="VWCAKZxeJrcyrxoi_61h-1" value="Total" style="ellipse;whiteSpace=wrap;html=1;align=center;" parent="1" vertex="1">
          <mxGeometry x="1690" y="157.5" width="91.5" height="31" as="geometry" />
        </mxCell>
        <mxCell id="VWCAKZxeJrcyrxoi_61h-2" value="" style="endArrow=none;html=1;rounded=0;entryX=1;entryY=0.75;entryDx=0;entryDy=0;exitX=0.5;exitY=0;exitDx=0;exitDy=0;" parent="1" source="VWCAKZxeJrcyrxoi_61h-1" target="rsmjsAigwn7J-hRb7SEo-54" edge="1">
          <mxGeometry width="50" height="50" relative="1" as="geometry">
            <mxPoint x="1460" y="210" as="sourcePoint" />
            <mxPoint x="1530" y="130" as="targetPoint" />
          </mxGeometry>
        </mxCell>
        <mxCell id="5raBlnDOGmxB4J52M2l9-1" value="LinhaFatura" style="rounded=0;whiteSpace=wrap;html=1;" parent="1" vertex="1">
          <mxGeometry x="1910" y="234" width="120" height="60" as="geometry" />
        </mxCell>
        <mxCell id="5raBlnDOGmxB4J52M2l9-2" value="&lt;b&gt;Id&lt;/b&gt;" style="ellipse;whiteSpace=wrap;html=1;align=center;fontStyle=4;" parent="1" vertex="1">
          <mxGeometry x="1880" y="340" width="100" height="40" as="geometry" />
        </mxCell>
        <mxCell id="5raBlnDOGmxB4J52M2l9-3" value="DtaVenda" style="ellipse;whiteSpace=wrap;html=1;align=center;" parent="1" vertex="1">
          <mxGeometry x="2006" y="338" width="100" height="40" as="geometry" />
        </mxCell>
        <mxCell id="5raBlnDOGmxB4J52M2l9-4" value="Quantidade" style="ellipse;whiteSpace=wrap;html=1;align=center;" parent="1" vertex="1">
          <mxGeometry x="2110" y="320" width="100" height="40" as="geometry" />
        </mxCell>
        <mxCell id="5raBlnDOGmxB4J52M2l9-5" value="Preco" style="ellipse;whiteSpace=wrap;html=1;align=center;" parent="1" vertex="1">
          <mxGeometry x="2080" y="264" width="91.5" height="31" as="geometry" />
        </mxCell>
        <mxCell id="5raBlnDOGmxB4J52M2l9-6" value="" style="endArrow=none;html=1;rounded=0;entryX=0.25;entryY=1;entryDx=0;entryDy=0;exitX=0.5;exitY=0;exitDx=0;exitDy=0;" parent="1" source="5raBlnDOGmxB4J52M2l9-2" target="5raBlnDOGmxB4J52M2l9-1" edge="1">
          <mxGeometry width="50" height="50" relative="1" as="geometry">
            <mxPoint x="1818" y="356" as="sourcePoint" />
            <mxPoint x="1670" y="347" as="targetPoint" />
          </mxGeometry>
        </mxCell>
        <mxCell id="5raBlnDOGmxB4J52M2l9-7" value="" style="endArrow=none;html=1;rounded=0;entryX=0.5;entryY=1;entryDx=0;entryDy=0;exitX=0.5;exitY=0;exitDx=0;exitDy=0;" parent="1" source="5raBlnDOGmxB4J52M2l9-3" target="5raBlnDOGmxB4J52M2l9-1" edge="1">
          <mxGeometry width="50" height="50" relative="1" as="geometry">
            <mxPoint x="1828" y="366" as="sourcePoint" />
            <mxPoint x="1680" y="357" as="targetPoint" />
          </mxGeometry>
        </mxCell>
        <mxCell id="5raBlnDOGmxB4J52M2l9-8" value="" style="endArrow=none;html=1;rounded=0;entryX=0.75;entryY=1;entryDx=0;entryDy=0;exitX=0;exitY=0;exitDx=0;exitDy=0;" parent="1" source="5raBlnDOGmxB4J52M2l9-4" target="5raBlnDOGmxB4J52M2l9-1" edge="1">
          <mxGeometry width="50" height="50" relative="1" as="geometry">
            <mxPoint x="1838" y="376" as="sourcePoint" />
            <mxPoint x="1690" y="367" as="targetPoint" />
          </mxGeometry>
        </mxCell>
        <mxCell id="5raBlnDOGmxB4J52M2l9-9" value="" style="endArrow=none;html=1;rounded=0;entryX=1;entryY=0.5;entryDx=0;entryDy=0;exitX=0;exitY=0.5;exitDx=0;exitDy=0;" parent="1" source="5raBlnDOGmxB4J52M2l9-5" target="5raBlnDOGmxB4J52M2l9-1" edge="1">
          <mxGeometry width="50" height="50" relative="1" as="geometry">
            <mxPoint x="1848" y="386" as="sourcePoint" />
            <mxPoint x="1700" y="377" as="targetPoint" />
          </mxGeometry>
        </mxCell>
        <mxCell id="5raBlnDOGmxB4J52M2l9-10" value="Contem" style="shape=rhombus;perimeter=rhombusPerimeter;whiteSpace=wrap;html=1;align=center;rotation=-15;" parent="1" vertex="1">
          <mxGeometry x="1736" y="247" width="120" height="60" as="geometry" />
        </mxCell>
        <mxCell id="5raBlnDOGmxB4J52M2l9-11" value="Associa" style="shape=rhombus;perimeter=rhombusPerimeter;whiteSpace=wrap;html=1;align=center;rotation=0;" parent="1" vertex="1">
          <mxGeometry x="1910" y="147.5" width="120" height="60" as="geometry" />
        </mxCell>
        <mxCell id="5raBlnDOGmxB4J52M2l9-12" value="" style="shape=link;html=1;rounded=0;exitX=1;exitY=0;exitDx=0;exitDy=0;entryX=0;entryY=0.5;entryDx=0;entryDy=0;" parent="1" source="rsmjsAigwn7J-hRb7SEo-81" target="5raBlnDOGmxB4J52M2l9-10" edge="1">
          <mxGeometry relative="1" as="geometry">
            <mxPoint x="1650" y="115" as="sourcePoint" />
            <mxPoint x="1721" y="96" as="targetPoint" />
          </mxGeometry>
        </mxCell>
        <mxCell id="5raBlnDOGmxB4J52M2l9-13" value="1" style="resizable=0;html=1;whiteSpace=wrap;align=left;verticalAlign=bottom;" parent="5raBlnDOGmxB4J52M2l9-12" connectable="0" vertex="1">
          <mxGeometry x="-1" relative="1" as="geometry" />
        </mxCell>
        <mxCell id="5raBlnDOGmxB4J52M2l9-14" value="" style="shape=link;html=1;rounded=0;exitX=1;exitY=0.5;exitDx=0;exitDy=0;entryX=0;entryY=0.5;entryDx=0;entryDy=0;" parent="1" source="5raBlnDOGmxB4J52M2l9-10" target="5raBlnDOGmxB4J52M2l9-1" edge="1">
          <mxGeometry relative="1" as="geometry">
            <mxPoint x="1837" y="64" as="sourcePoint" />
            <mxPoint x="1930" y="60" as="targetPoint" />
          </mxGeometry>
        </mxCell>
        <mxCell id="5raBlnDOGmxB4J52M2l9-15" value="N" style="resizable=0;html=1;whiteSpace=wrap;align=left;verticalAlign=bottom;" parent="5raBlnDOGmxB4J52M2l9-14" connectable="0" vertex="1">
          <mxGeometry x="-1" relative="1" as="geometry">
            <mxPoint x="36" y="19" as="offset" />
          </mxGeometry>
        </mxCell>
        <mxCell id="5raBlnDOGmxB4J52M2l9-16" value="" style="html=1;rounded=0;exitX=0.5;exitY=0;exitDx=0;exitDy=0;endArrow=none;endFill=0;" parent="1" source="5raBlnDOGmxB4J52M2l9-11" edge="1">
          <mxGeometry relative="1" as="geometry">
            <mxPoint x="1837" y="64" as="sourcePoint" />
            <mxPoint x="1980" y="80" as="targetPoint" />
          </mxGeometry>
        </mxCell>
        <mxCell id="5raBlnDOGmxB4J52M2l9-17" value="1" style="resizable=0;html=1;whiteSpace=wrap;align=left;verticalAlign=bottom;" parent="5raBlnDOGmxB4J52M2l9-16" connectable="0" vertex="1">
          <mxGeometry x="-1" relative="1" as="geometry">
            <mxPoint x="10" y="-45" as="offset" />
          </mxGeometry>
        </mxCell>
        <mxCell id="5raBlnDOGmxB4J52M2l9-18" value="" style="shape=link;html=1;rounded=0;exitX=0.5;exitY=0;exitDx=0;exitDy=0;entryX=0.5;entryY=1;entryDx=0;entryDy=0;" parent="1" source="5raBlnDOGmxB4J52M2l9-1" target="5raBlnDOGmxB4J52M2l9-11" edge="1">
          <mxGeometry relative="1" as="geometry">
            <mxPoint x="1650" y="115" as="sourcePoint" />
            <mxPoint x="1721" y="96" as="targetPoint" />
          </mxGeometry>
        </mxCell>
        <mxCell id="5raBlnDOGmxB4J52M2l9-19" value="1" style="resizable=0;html=1;whiteSpace=wrap;align=left;verticalAlign=bottom;" parent="5raBlnDOGmxB4J52M2l9-18" connectable="0" vertex="1">
          <mxGeometry x="-1" relative="1" as="geometry" />
        </mxCell>
        <mxCell id="aIlGzek3OenbKhvTA8Uo-1" value="Categoria" style="ellipse;whiteSpace=wrap;html=1;align=center;" vertex="1" parent="1">
          <mxGeometry x="2620" y="50" width="100" height="40" as="geometry" />
        </mxCell>
        <mxCell id="aIlGzek3OenbKhvTA8Uo-2" value="" style="endArrow=none;html=1;rounded=0;entryX=0.5;entryY=0;entryDx=0;entryDy=0;exitX=0.5;exitY=1;exitDx=0;exitDy=0;" edge="1" parent="1" source="aIlGzek3OenbKhvTA8Uo-1" target="rsmjsAigwn7J-hRb7SEo-103">
          <mxGeometry width="50" height="50" relative="1" as="geometry">
            <mxPoint x="2550" y="72" as="sourcePoint" />
            <mxPoint x="2606" y="163" as="targetPoint" />
          </mxGeometry>
        </mxCell>
      </root>
    </mxGraphModel>
  </diagram>
</mxfile>
